<?xml version="1.0" standalone="no"?>
<!DOCTYPE svg PUBLIC "-//W3C//DTD SVG 20010904//EN"
 "http://www.w3.org/TR/2001/REC-SVG-20010904/DTD/svg10.dtd">
<svg version="1.0" xmlns="http://www.w3.org/2000/svg"
 width="250.000000pt" height="250.000000pt" viewBox="0 0 250.000000 250.000000"
 preserveAspectRatio="xMidYMid meet">
<metadata>
Created by potrace 1.15, written by Peter Selinger 2001-2017
</metadata>
<g transform="translate(0.000000,250.000000) scale(0.100000,-0.100000)"
fill="#000000" stroke="none">
<path d="M342 1655 c-41 -29 -38 -200 5 -247 22 -25 104 -25 126 0 10 10 17
26 17 35 0 13 10 17 45 17 l45 0 0 -267 c0 -148 5 -288 11 -313 17 -75 26 -80
153 -80 61 0 117 4 124 8 26 17 32 85 33 367 1 159 5 265 8 235 12 -105 9
-102 271 -211 256 -105 267 -114 219 -165 -21 -23 -29 -24 -137 -24 l-115 0
-48 45 c-44 41 -53 45 -99 45 -65 0 -90 -23 -90 -82 1 -61 29 -115 88 -170
l51 -48 222 0 221 0 32 35 c18 19 36 35 40 35 5 0 26 -16 47 -35 44 -39 97
-47 137 -19 19 13 22 24 22 88 0 64 -3 75 -25 96 -14 13 -25 34 -25 47 l0 23
199 0 c110 0 211 4 225 10 15 5 29 21 33 37 13 47 9 235 -5 261 -11 19 -11 26
-1 38 8 10 13 51 13 116 1 93 -1 101 -23 119 -23 19 -51 19 -911 19 -763 -1
-890 -3 -908 -15z m345 -53 c10 -6 13 -88 15 -333 l3 -324 35 0 35 0 3 319 c1
215 6 324 13 333 9 11 130 13 654 13 354 0 650 -3 659 -6 20 -8 23 -110 3
-117 -24 -8 -37 6 -37 39 l0 34 -173 0 -172 0 -38 -31 -37 -30 0 -80 0 -79
233 -2 232 -3 0 -80 0 -80 -232 -3 -233 -2 0 -91 c0 -88 1 -92 30 -117 33 -29
40 -62 13 -62 -10 0 -35 16 -55 35 l-37 35 -2 114 c0 63 2 119 6 125 4 7 84
11 236 11 l229 0 0 35 0 35 -232 2 -233 3 -3 109 c-2 101 -1 111 19 132 l22
24 -279 0 -280 0 -33 -34 c-30 -31 -33 -38 -25 -71 l9 -36 250 -103 250 -104
3 -106 c3 -100 1 -107 -22 -133 -13 -15 -33 -39 -44 -53 l-20 -25 -186 0 -185
0 -52 50 c-29 28 -48 44 -44 36 5 -9 4 -12 -3 -7 -18 11 -14 56 4 63 10 4 33
-12 68 -46 l52 -51 156 0 156 0 36 40 c35 39 36 42 36 119 l0 79 -82 34 c-46
19 -163 68 -260 108 l-178 73 0 57 c0 43 5 64 21 84 l21 27 -88 -3 -89 -3 -1
-305 c0 -168 -1 -315 -2 -327 -2 -22 -6 -23 -92 -23 l-90 0 0 330 0 330 -110
0 -110 0 0 -34 c0 -33 -13 -47 -37 -39 -8 3 -13 24 -13 58 0 33 5 55 13 58 20
9 281 7 294 -1z m843 -222 c0 -44 -4 -80 -9 -80 -9 0 -373 149 -380 156 -2 2
84 4 192 4 l197 0 0 -80z"/>
</g>
</svg>
