<svg xmlns="http://www.w3.org/2000/svg"><defs><font id="icons" horiz-adv-x="595.279"><font-face font-family="icons" units-per-em="595.281" ascent="595.281" descent="0"/><glyph glyph-name="1ST" unicode="" horiz-adv-x="595.281" d="M241.976 429.329C167.69 354.62 136.45 319.285 137.92 311.599c1.81-9.494 9.744-11.387 58.581-13.959l56.492-2.976 2.977-72.898 2.976-72.904 45.551-45.527c31.693-31.67 48.474-44.408 55.135-41.848 8.614 3.303 9.423 27.186 8.024 237.404-1.35 202.853-2.744 233.951-10.548 235.457-5.107.982-54.754-44.3-115.133-105.02"/><glyph glyph-name="ABYSS" unicode="" horiz-adv-x="595.281" d="M263.56 498.548C247.816 481.469 59.529 154.803 59.529 144.57c0-6.078 38.211-7.655 185.174-7.655 166.411 0 184.805.952 181.56 9.417-1.987 5.179-3.612 10.536-3.612 11.906 0 1.369-73.667 2.488-163.703 2.488s-163.702 1.048-163.702 2.333c0 1.286 43.17 76.958 95.93 168.167 52.76 91.21 97.245 169.18 98.858 173.275 4.887 12.417-13.317 8.322-26.472-5.953m50.01-5.239c-13.311-20.656-176.656-304.242-176.656-306.688 0-1.15 6.024-2.048 13.393-2 11.21.07 26.514 22.948 93.716 140.057 67.933 118.384 81.416 138.474 87.417 130.271 3.899-5.333 49.295-82.934 100.882-172.446 51.58-89.513 95.953-161.41 98.608-159.774 2.65 1.643 4.822 8.911 4.822 16.156 0 13.65-183.531 337.709-202.413 357.4-10.406 10.859-10.9 10.781-19.77-2.976m5.054-89.244c-3.34-12.918 9.37-38.765 73.809-150.059 42.813-73.951 77.839-135.908 77.839-137.676 0-1.774-89.739-3.227-199.42-3.227-109.68 0-199.418-2.25-199.418-4.994 0-15.84 36.71-18.817 232.088-18.817 110.972 0 202.96 2.012 204.42 4.465 2.261 3.804-149.47 272.906-176.115 312.344l-9.167 13.572-4.036-15.608m-73.577-125.896c-26.734-46.724-48.604-86.905-48.604-89.292 0-2.387 45.735-4.34 101.632-4.34 78.369 0 101.198 1.703 99.71 7.441-3.489 13.483-95.466 171.143-99.847 171.143-2.357 0-26.157-38.229-52.89-84.952m21.34-12.108c-15.548-27.169-28.276-51.266-28.276-53.558 0-2.285 26.788-4.155 59.528-4.155 32.741 0 59.529 1.78 59.529 3.953 0 6.47-55.41 103.198-59.106 103.18-1.869-.012-16.126-22.252-31.675-49.42"/><glyph glyph-name="ADA-alt" unicode="" horiz-adv-x="595.281" d="M0 297.64C0 133.258 133.258 0 297.64 0c164.383 0 297.641 133.258 297.641 297.64 0 164.383-133.258 297.641-297.64 297.641C133.257 595.281 0 462.023 0 297.641zm269.21 23.864a23.942 23.942 0 0 0-21.5 13.268c-5.954 11.882-1.183 26.409 10.659 32.4a24.178 24.178 0 0 0 10.8 2.578c9.146 0 17.383-5.086 21.507-13.258 5.974-11.881 1.186-26.418-10.656-32.39a23.99 23.99 0 0 0-10.81-2.595M240.984 272.2c-.471 0-.926.016-1.395.033-13.22.771-23.39 12.191-22.635 25.466.745 13.225 12.05 23.495 25.378 22.716 13.236-.743 23.39-12.177 22.642-25.452-.731-12.777-11.282-22.763-23.99-22.763m28.407-49.159a23.91 23.91 0 0 0-13.175 3.948 23.966 23.966 0 0 0-10.355 15.251 24.05 24.05 0 0 0 3.426 18.144 24.035 24.035 0 0 0 20.135 10.896c4.681 0 9.25-1.376 13.172-3.955a23.914 23.914 0 0 0 10.363-15.26c1.324-6.3.095-12.74-3.434-18.132a23.966 23.966 0 0 0-20.135-10.892m56.721.115a23.947 23.947 0 0 0-21.482 13.267 23.987 23.987 0 0 0-1.362 18.409 23.954 23.954 0 0 0 12.017 13.982 23.93 23.93 0 0 0 10.81 2.588c9.149 0 17.385-5.086 21.493-13.275 5.955-11.872 1.183-26.402-10.658-32.39a24.118 24.118 0 0 0-10.818-2.581m28.26 49.289c-.48 0-.934.03-1.389.047-13.253.75-23.406 12.185-22.651 25.443.747 13.232 12.06 23.501 25.387 22.723a23.84 23.84 0 0 0 16.573-8.017 23.964 23.964 0 0 0 6.053-17.433c-.715-12.77-11.256-22.763-23.974-22.763m-28.502 49.172a23.842 23.842 0 0 0-13.163 3.955c-11.103 7.301-14.196 22.276-6.924 33.403a24.011 24.011 0 0 0 33.29 6.94c11.097-7.283 14.204-22.265 6.932-33.392a24.03 24.03 0 0 0-20.135-10.906m-80.734 89.543c2.993-5.941.6-13.201-5.317-16.18a11.994 11.994 0 0 0-16.135 5.322 12.072 12.072 0 0 0 5.317 16.196 12.013 12.013 0 0 0 16.135-5.338m-72.798-102.955c6.629-.374 11.694-6.072 11.32-12.713a12.048 12.048 0 0 0-12.685-11.36c-6.621.39-11.679 6.078-11.312 12.729a12.034 12.034 0 0 0 12.677 11.344M224.842 193.5a11.98 11.98 0 0 0 16.628 3.467c5.553-3.639 7.103-11.108 3.457-16.685a12.006 12.006 0 0 0-16.637-3.476 12.082 12.082 0 0 0-3.448 16.694m125.321-11.751a12.058 12.058 0 0 0 5.31 16.17 12.006 12.006 0 0 0 16.142-5.322c2.993-5.94.6-13.2-5.324-16.18a11.975 11.975 0 0 0-16.128 5.332M422.954 284.7c-6.638.374-11.686 6.072-11.312 12.713.373 6.658 6.045 11.737 12.677 11.353 6.62-.366 11.7-6.062 11.33-12.72a12.034 12.034 0 0 0-12.695-11.346m-52.492 114.71a11.996 11.996 0 0 0-16.636-3.477 12.063 12.063 0 0 0-3.458 16.687 11.982 11.982 0 0 0 16.627 3.477 12.082 12.082 0 0 0 3.467-16.687M218.85 448.128a7.81 7.81 0 0 0-3.44-10.475 7.762 7.762 0 0 0-10.444 3.46 7.805 7.805 0 0 0 3.44 10.467 7.777 7.777 0 0 0 10.444-3.452m-91.585-144.266a7.78 7.78 0 0 0 7.32-8.22c-.25-4.297-3.92-7.6-8.196-7.333a7.762 7.762 0 0 0-7.32 8.215 7.786 7.786 0 0 0 8.196 7.338M206.06 152.19a7.755 7.755 0 0 0 10.777 2.238 7.805 7.805 0 0 0 2.226-10.799 7.767 7.767 0 0 0-10.762-2.247 7.824 7.824 0 0 0-2.239 10.81m170.382-7.424a7.81 7.81 0 0 0 3.448 10.484 7.741 7.741 0 0 0 10.429-3.453 7.791 7.791 0 0 0-3.434-10.465 7.767 7.767 0 0 0-10.443 3.434m91.578 144.267a7.8 7.8 0 0 0-7.33 8.236 7.774 7.774 0 0 0 8.22 7.341 7.753 7.753 0 0 0 7.299-8.229 7.789 7.789 0 0 0-8.192-7.348M389.242 440.72a7.762 7.762 0 0 0-10.77-2.246 7.82 7.82 0 0 0-2.238 10.799 7.743 7.743 0 0 0 10.76 2.231 7.81 7.81 0 0 0 2.248-10.784m-168.036-83.925c6.525-4.281 8.351-13.073 4.065-19.616a14.09 14.09 0 0 0-19.573-4.076c-6.534 4.28-8.353 13.062-4.067 19.62 4.286 6.536 13.049 8.377 19.573 4.072m-13.901-96.557c6.972 3.531 15.477.707 18.992-6.277 3.505-6.99.705-15.52-6.265-19.044-6.965-3.524-15.477-.7-18.985 6.277-3.512 6.99-.714 15.52 6.258 19.044m75.42-60.35c.447 7.815 7.134 13.787 14.918 13.358 7.805-.44 13.762-7.155 13.317-14.96-.438-7.822-7.12-13.804-14.925-13.356-7.79.448-13.748 7.146-13.31 14.958m91.375 36.2a14.232 14.232 0 0 0-4.083 19.64 14.12 14.12 0 0 0 19.568 4.072c6.534-4.284 8.35-13.073 4.072-19.616a14.099 14.099 0 0 0-19.557-4.096m13.894 96.574c-6.972-3.524-15.477-.714-18.982 6.277-3.515 6.981-.724 15.51 6.258 19.025 6.976 3.533 15.477.719 19.006-6.272 3.498-6.984.69-15.513-6.282-19.03m-76.427 60.35c-.445-7.806-7.134-13.797-14.939-13.349a14.16 14.16 0 0 0-13.31 14.96c.445 7.82 7.117 13.795 14.908 13.354a14.187 14.187 0 0 0 13.341-14.965M168.56 382.225c4.576-2.993 5.843-9.153 2.848-13.737a9.86 9.86 0 0 0-13.699-2.847 9.934 9.934 0 0 0-2.848 13.739 9.872 9.872 0 0 0 13.699 2.848m-9.537-154.993a9.872 9.872 0 0 0 13.294-4.395 9.941 9.941 0 0 0-4.39-13.332 9.884 9.884 0 0 0-13.287 4.388c-2.45 4.891-.493 10.873 4.383 13.34m128.074-85.783a9.889 9.889 0 0 0 10.436 9.344 9.905 9.905 0 0 0 9.318-10.468 9.889 9.889 0 0 0-10.437-9.35 9.898 9.898 0 0 0-9.317 10.476m139.622 69.22a9.948 9.948 0 0 0-2.848 13.736 9.889 9.889 0 0 0 13.708 2.858 9.958 9.958 0 0 0 2.848-13.74 9.882 9.882 0 0 0-13.708-2.857m9.553 154.985a9.905 9.905 0 0 0-13.301 4.41 9.922 9.922 0 0 0 4.39 13.315 9.877 9.877 0 0 0 13.287-4.386 9.953 9.953 0 0 0-4.376-13.339m-129.08 85.79a9.908 9.908 0 0 0-10.454-9.344 9.917 9.917 0 0 0-9.315 10.468 9.9 9.9 0 0 0 10.444 9.35 9.915 9.915 0 0 0 9.324-10.477"/><glyph glyph-name="ADA" unicode="" horiz-adv-x="595.281" d="M256.185 335.134c-13.72 0-26.087 7.61-32.247 19.851-8.934 17.78-1.777 39.52 15.984 48.482a36.336 36.336 0 0 0 16.204 3.86 35.979 35.979 0 0 0 32.26-19.837c8.96-17.782 1.775-39.534-15.985-48.473a36.053 36.053 0 0 0-16.216-3.883m-42.336-73.782c-.707 0-1.388.024-2.096.048-19.83 1.157-35.083 18.244-33.95 38.107 1.12 19.79 18.078 35.16 38.067 33.99 19.854-1.106 35.084-18.217 33.965-38.08-1.096-19.12-16.923-34.065-35.986-34.065m42.608-73.56a35.931 35.931 0 0 0-19.759 5.905 35.86 35.86 0 0 0-15.532 22.826c-1.974 9.424-.136 19.073 5.136 27.145a36.074 36.074 0 0 0 30.202 16.308c7.025 0 13.877-2.06 19.759-5.92a35.781 35.781 0 0 0 15.546-22.835c1.984-9.426.143-19.058-5.15-27.135a35.97 35.97 0 0 0-30.202-16.294m85.08.172a35.929 35.929 0 0 0-32.224 19.851c-4.346 8.596-5.062 18.377-2.046 27.547 3.008 9.158 9.437 16.575 18.03 20.923a35.964 35.964 0 0 0 16.216 3.874 35.895 35.895 0 0 0 32.235-19.865c8.937-17.768 1.777-39.508-15.984-48.47a36.248 36.248 0 0 0-16.227-3.86m42.388 73.752c-.719 0-1.4.048-2.08.072-19.88 1.121-35.11 18.235-33.98 38.074 1.122 19.802 18.092 35.17 38.082 34.003a35.793 35.793 0 0 0 24.859-11.997 35.807 35.807 0 0 0 9.079-26.087c-1.071-19.109-16.882-34.065-35.96-34.065M341.172 335.3c-7 0-13.841 2.034-19.746 5.92-16.654 10.924-21.29 33.333-10.382 49.98a36.04 36.04 0 0 0 30.188 16.296 35.945 35.945 0 0 0 19.746-5.905c16.642-10.9 21.304-33.322 10.396-49.97-6.707-10.194-17.98-16.32-30.202-16.32M220.063 469.295c4.494-8.891.903-19.754-7.972-24.212a18.01 18.01 0 0 0-24.201 7.965 18.044 18.044 0 0 0 7.974 24.235c8.875 4.458 19.732.903 24.2-7.988M110.867 315.237c9.945-.562 17.541-9.086 16.982-19.025-.56-9.95-9.094-17.55-19.025-17.001-9.937.583-17.52 9.095-16.973 19.049.56 9.924 9.081 17.534 19.016 16.977m78.762-171.648a17.997 17.997 0 0 0 24.945 5.188c8.327-5.445 10.65-16.625 5.186-24.968-5.453-8.33-16.63-10.644-24.956-5.2a18.051 18.051 0 0 0-5.175 24.978m187.985-17.585c-4.493 8.88-.902 19.716 7.96 24.2 8.925 4.48 19.747.9 24.216-7.966 4.491-8.89.898-19.753-7.988-24.21a17.977 17.977 0 0 0-24.188 7.976M486.8 280.06c-9.957.562-17.53 9.088-16.97 19.025a18.006 18.006 0 0 0 19.016 16.99c9.934-.548 17.553-9.073 16.994-19.036-.548-9.95-9.106-17.537-19.04-16.977m-78.74 171.647a18.023 18.023 0 1 0-30.14 19.768 18.001 18.001 0 0 0 24.942 5.2c8.315-5.47 10.654-16.637 5.198-24.968m-227.411 72.9a11.672 11.672 0 0 0-5.163-15.675 11.656 11.656 0 0 0-15.667 5.177 11.668 11.668 0 0 0 5.162 15.663 11.677 11.677 0 0 0 15.668-5.165M43.269 308.73a11.65 11.65 0 0 0 10.983-12.3c-.38-6.43-5.882-11.375-12.297-10.973a11.625 11.625 0 0 0-10.979 12.287A11.668 11.668 0 0 0 43.27 308.73M161.464 81.768a11.65 11.65 0 0 0 16.168 3.348 11.665 11.665 0 0 0 3.333-16.161 11.668 11.668 0 0 0-16.144-3.362 11.691 11.691 0 0 0-3.357 16.175m255.57-11.108c-2.897 5.786-.583 12.798 5.175 15.687a11.625 11.625 0 0 0 15.644-5.165 11.644 11.644 0 0 0-5.15-15.66 11.665 11.665 0 0 0-15.668 5.138m137.367 215.88a11.682 11.682 0 0 0-10.994 12.324 11.65 11.65 0 0 0 12.334 10.985c6.415-.341 11.344-5.882 10.942-12.31-.34-6.42-5.867-11.34-12.282-11M436.234 513.528c-3.555-5.395-10.787-6.905-16.156-3.362a11.687 11.687 0 0 0-3.357 16.161 11.632 11.632 0 0 0 16.139 3.338 11.668 11.668 0 0 0 3.374-16.137M184.18 387.94c9.786-6.405 12.525-19.559 6.098-29.352a21.163 21.163 0 0 0-29.362-6.1c-9.8 6.405-12.527 19.548-6.1 29.363 6.429 9.78 19.575 12.532 29.364 6.089m-20.854-144.487c10.458 5.284 23.216 1.057 28.485-9.39 5.26-10.464 1.06-23.226-9.398-28.5-10.443-5.272-23.216-1.048-28.473 9.39-5.272 10.46-1.072 23.226 9.386 28.498m113.127-90.304c.672 11.691 10.703 20.63 22.376 19.985 11.712-.658 20.646-10.706 19.977-22.383a21.204 21.204 0 0 0-22.387-19.987c-11.687.669-20.62 10.691-19.963 22.382m137.062 54.17c-9.787 6.447-12.527 19.586-6.124 29.391 6.429 9.78 19.572 12.506 29.35 6.089 9.8-6.406 12.526-19.559 6.112-29.35-6.417-9.817-19.564-12.532-29.338-6.127m20.84 144.51c-10.456-5.271-23.216-1.07-28.474 9.392-5.272 10.45-1.083 23.213 9.386 28.473 10.47 5.286 23.216 1.072 28.51-9.388 5.248-10.449 1.035-23.214-9.423-28.474m-114.636 90.304c-.672-11.68-10.701-20.644-22.414-19.973a21.209 21.209 0 0 0-19.963 22.385c.669 11.704 10.677 20.645 22.363 19.985a21.252 21.252 0 0 0 20.014-22.397M105.21 425.997c6.865-4.48 8.763-13.7 4.272-20.556a14.813 14.813 0 0 0-20.55-4.262c-6.852 4.493-8.776 13.713-4.271 20.556 4.503 6.846 13.694 8.782 20.549 4.262m-14.303-231.93a14.822 14.822 0 0 0 19.94-6.577 14.86 14.86 0 0 0-6.587-19.95c-7.317-3.676-16.24-.754-19.93 6.565-3.674 7.32-.74 16.27 6.577 19.961M283.016 65.702a14.82 14.82 0 0 0 15.656 13.982 14.837 14.837 0 0 0 13.977-15.663A14.82 14.82 0 0 0 296.99 50.03a14.825 14.825 0 0 0-13.974 15.672m209.434 103.58a14.865 14.865 0 0 0-4.272 20.558c4.503 6.846 13.706 8.781 20.561 4.276a14.877 14.877 0 0 0 4.272-20.558 14.842 14.842 0 0 0-20.561-4.274m14.33 231.919a14.875 14.875 0 0 0-19.954 6.6 14.83 14.83 0 0 0 6.586 19.925 14.834 14.834 0 0 0 19.93-6.564c3.686-7.334.74-16.27-6.563-19.961M313.16 529.579a14.849 14.849 0 0 0-29.655 1.68c.476 8.208 7.474 14.468 15.668 13.992a14.849 14.849 0 0 0 13.986-15.672"/><glyph glyph-name="ADC-alt" unicode="" horiz-adv-x="595.281" d="M357.221 304.202l-83.99 48.557c-7.35 4.2-16.273-1.05-16.273-9.449v-97.114c0-8.399 9.186-13.648 16.273-9.448l83.99 48.556c7.35 4.2 7.35 14.699 0 18.898zm-59.58 134.647c-77.691 0-141.21-63.255-141.21-141.209 0-77.69 63.256-141.208 141.21-141.208 77.69 0 141.208 63.255 141.208 141.209 0 77.953-63.518 141.208-141.209 141.208zm0-265.882c-68.768 0-124.936 55.906-124.936 124.936 0 68.767 55.906 124.935 124.935 124.935 68.768 0 124.936-55.906 124.936-124.935-.262-69.03-56.168-124.936-124.936-124.936zm0 422.314C133.334 595.281 0 461.946 0 297.641 0 133.334 133.335 0 297.64 0s297.641 133.335 297.641 297.64c0 164.306-133.335 297.641-297.64 297.641zm0-486.356c-104.2 0-188.716 84.515-188.716 188.715S193.44 486.356 297.64 486.356s188.716-84.515 188.716-188.716-84.515-188.715-188.716-188.715z"/><glyph glyph-name="ADC" unicode="" horiz-adv-x="595.281" d="M297.64 494.493c-108.662 0-196.852-88.19-196.852-196.853s88.19-196.852 196.852-196.852 196.853 88.19 196.853 196.852S406.04 494.493 297.64 494.493zm94.227-216.275l-132.285-76.379c-11.548-6.562-25.722 1.575-25.722 14.96v152.758c0 13.124 14.174 21.523 25.722 14.96l132.285-76.378c11.286-6.824 11.286-23.36 0-29.921zM297.64 595.28C133.335 595.281 0 461.946 0 297.641S133.335 0 297.64 0c164.306 0 297.641 133.335 297.641 297.64s-133.335 297.641-297.64 297.641zm0-520.215c-122.835 0-222.574 99.739-222.574 222.575s99.739 222.574 222.574 222.574 222.575-99.739 222.575-222.574c0-122.574-100.001-222.575-222.575-222.575z"/><glyph glyph-name="ADX" unicode="" horiz-adv-x="595.281" d="M241.791 529.514c-37.67-9.465-91.28-41.193-117.306-69.427-13.364-14.501-32.782-44.265-43.14-66.13-17.06-36.009-18.84-45.134-18.84-96.626 0-53.665 1.25-59.385 22.233-101.84 26.776-54.183 61.243-87.93 116.586-114.146 35.961-17.037 45.176-18.84 96.316-18.84 51.141 0 60.356 1.803 96.317 18.84 55.343 26.216 89.81 59.963 116.586 114.145 21.007 42.503 22.233 48.129 22.233 102.15 0 54.022-1.226 59.648-22.233 102.15-40.223 81.393-111.687 129.153-199.515 133.332-25.37 1.208-56.528-.417-69.237-3.608m27.324-96.673c-13.775-14.037-25.05-27.93-25.05-30.866 0-2.94 5.84-11.56 12.977-19.156l12.972-13.81 13.816 12.977 13.81 12.977 13.775-12.941 13.77-12.936 15.94 16.638 15.942 16.638-28.43 28.002c-15.638 15.4-29.788 28.002-31.449 28.002-1.66 0-14.293-11.489-28.073-25.525m-51.909-57.891l-17.186-17.936 29.24-29.687 29.24-29.687-28.055-28.478c-15.424-15.668-28.05-31.27-28.05-34.68 0-7.424 25.306-32.086 32.92-32.086 2.952 0 18.18 12.625 33.847 28.05L297.64 258.5l28.479-28.056c15.668-15.424 31.27-28.05 34.68-28.05 7.424 0 32.086 25.306 32.086 32.92 0 2.952-12.625 18.18-28.05 33.847L336.78 297.64l29.371 29.818 29.372 29.824-19.12 19.12-19.121 19.12-29.824-29.37-29.818-29.372-28.478 28.056c-15.668 15.424-29.9 28.05-31.627 28.05-1.732 0-10.882-8.073-20.329-17.936m38.973-163.405l-13.84-14.727 22.537-25.49c12.394-14.013 24.853-28.044 27.687-31.175 3.137-3.465 16.775 5.75 34.83 23.537l29.674 29.229-15.941 16.638-15.942 16.638-13.769-12.936-13.775-12.941-13.81 12.977-13.816 12.977-13.835-14.727"/><glyph glyph-name="AEON-alt" unicode="" horiz-adv-x="595.281" d="M385.436 365.557c-26.304 4.99-55.78-5.743-71.803-23.283-6.502 14.815-26.756 25.244-53.967 23.129s-48.522-7.104-48.522-7.104l-5.594-32.2s20.407 11.038 40.21 11.193c19.8.15 39.153-1.063 35.977-21.467 0 0-25.09.908-47.312-2.116 0 0-43.687-3.63-50.945-37.035-7.253-33.406 11.49-48.972 37.642-48.827 26.15.155 45.732 7.108 60.959 24.186 15.227-23.43 40.17-22.525 58.912-22.824 18.742-.302 43.99 6.5 43.99 6.5l6.346 32.654s-25.546-11.791-46.102-11.49c-20.559.297-32.198 3.02-30.082 21.767 0 0 30.234-.302 46.711 1.963 0 0 41.115 4.99 49.578 31.594 8.468 26.604.304 48.37-25.998 53.36zM264.048 263.37c-7.705-7.71-24.26-11.337-34.122-3.515-9.865 7.823-3.856 23.47 7.935 27.552 11.789 4.08 38.55 2.601 38.55 2.601s-4.651-18.93-12.363-26.638zm88.09 41.721c-18.592-2.042-32.536-.79-32.536-.79s1.247 18.819 14.057 27.888c12.812 9.072 31.292 8.612 35.825-.677 4.539-9.303 1.247-24.378-17.345-26.42zm-54.496 290.19C133.259 595.281 0 462.022 0 297.641S133.259 0 297.642 0C462.022 0 595.28 133.259 595.28 297.642c0 164.38-133.259 297.639-297.64 297.639zm183.926-158.608c9.77-12.813 13.34-29.337 11.465-48.134-48.506 25.42-125.2 36.773-209.327 26.93-3.24-.381-6.458-.799-9.66-1.232 88.333 52.975 175.657 64.22 207.522 22.436zm-107.745 78.145c17-5.93 30.1-19.992 39.063-39.944-46.604-3.95-104.555-26.218-161.383-64.196a498.549 498.549 0 0 1-26.344-5.497c43.881 78.886 103.37 125.437 148.664 109.637zM113.716 156.19c-9.768 12.818-13.343 29.337-11.466 48.14 48.507-25.423 125.198-36.779 209.328-26.93 3.234.378 6.452.796 9.654 1.237-88.33-52.983-175.654-64.23-207.516-22.447zm107.747-78.142c-17.002 5.932-30.103 19.994-39.065 39.944 46.604 3.953 104.552 26.218 161.38 64.193a496.706 496.706 0 0 1 26.339 5.495C326.241 108.8 266.751 62.248 221.463 78.048zm89.067 108.267c-126.87-14.852-235.493 22.409-242.612 83.227-7.119 60.812 89.963 122.16 216.833 137.01 126.875 14.849 235.495-22.418 242.61-83.233 7.12-60.815-89.958-122.155-216.83-137.004z"/><glyph glyph-name="AEON" unicode="" horiz-adv-x="595.281" d="M446.637 528.216c-11.581 25.78-28.502 43.952-50.472 51.617-58.527 20.412-135.401-39.737-192.1-141.672a644.872 644.872 0 0 0 34.037 7.106c73.431 49.071 148.316 77.846 208.535 82.949zM148.814 67.066c11.58-25.778 28.507-43.948 50.476-51.615 58.523-20.415 135.395 39.741 192.094 141.663a646.092 646.092 0 0 0-34.043-7.097c-73.43-49.074-148.31-77.844-208.527-82.952zM279.721 451.45c108.705 12.724 207.805-1.947 270.484-34.796 2.426 24.291-2.194 45.643-14.818 62.201-41.17 53.99-154.012 39.464-268.15-28.993a695.221 695.221 0 0 0 12.484 1.588zm36.007-307.614c-108.702-12.73-207.803 1.94-270.482 34.789-2.422-24.297 2.192-45.645 14.818-62.196 41.17-53.995 154.01-39.463 268.143 28.996a539.565 539.565 0 0 0-12.48-1.589zm-95.25 142.14c-15.237-5.274-23-25.489-10.253-35.598 12.745-10.116 34.133-5.42 44.092 4.539 9.962 9.959 15.967 34.418 15.967 34.418s-34.568 1.917-49.806-3.36zm123.788 57.867c-16.553-11.72-18.16-36.038-18.16-36.038s18.01-1.617 42.04 1.026c24.026 2.635 28.276 22.118 22.417 34.135-5.864 12.004-29.736 12.595-46.297.877zm250.298-11.46c-9.197 78.585-149.549 126.738-313.494 107.552C117.128 420.745-8.316 341.476.885 262.893c9.2-78.584 149.56-126.734 313.496-107.543 163.94 19.189 289.387 98.452 280.183 177.033zM444.76 318.008c-10.933-34.377-64.06-40.824-64.06-40.824-21.293-2.932-60.36-2.535-60.36-2.535-2.73-24.223 12.306-27.738 38.878-28.135 26.562-.383 59.571 14.852 59.571 14.852l-8.203-42.193s-32.62-8.789-56.846-8.397c-24.218.383-56.445-.788-76.121 29.488-19.674-22.068-44.976-31.05-78.768-31.25-33.793-.194-58.014 19.926-48.638 63.091 9.374 43.17 65.827 47.858 65.827 47.858 28.711 3.906 61.135 2.733 61.135 2.733 4.105 26.37-20.897 27.935-46.485 27.738-25.589-.197-51.954-14.458-51.954-14.458l7.224 41.605s27.539 6.447 62.703 9.183c35.158 2.735 61.33-10.744 69.732-29.886 20.705 22.662 58.788 36.532 92.779 30.082 33.983-6.447 44.533-34.576 33.586-68.952z"/><glyph glyph-name="AE" unicode="" horiz-adv-x="595.281" d="M103.478 402.398C36.96 371.426 12.322 299.26 45.52 232.642c26.853-53.891 90.923-82.857 146.451-66.22 14.102 4.221 37.223 19.621 55.695 37.093 30.383 28.734 31.24 30.395 22.52 43.705l-9.061 13.835-27.877-28.735c-17.983-18.537-36.265-31.014-51.498-35.163C113.931 178.71 46.7 245.75 64.97 313.606c9.06 33.645 44.741 65.243 79.571 70.463 47.825 7.173 81.03-18.03 144.576-109.746 61.249-88.387 90.28-109.978 148.416-110.347 28.46-.184 41.354 3.078 63.474 16.067 23.49 13.786 52.605 47.14 52.605 60.26 0 10.983-28.252 1.137-48.05-16.751-31.741-28.675-65.148-36.92-98.305-24.252-29.348 11.203-52.802 35.443-101.335 104.704-42.688 60.915-68.446 87.042-99.948 101.347-33.026 14.995-65.987 14.048-102.495-2.953m290.49 5.256c-27.894-12.12-52.27-30.413-65.76-49.354-10-14.049-10.47-17.764-3.446-27.365 7.66-10.477 9.982-9.412 40.788 18.745 36.52 33.377 61.386 41.366 98.037 31.496 26.288-7.078 66.213-46.694 66.213-65.695 0-11.09-3.994-11.888-59.528-11.888h-59.528V273.83h156.392l-3.863 28.276c-11.197 81.917-98.46 136.32-169.304 105.55"/><glyph glyph-name="AION" unicode="" horiz-adv-x="595.281" d="M297.67 516.406c.03-18.876.965-19.567 38.491-28.52l38.455-9.167 6.733 16.251c9.066 21.883 4.697 26.806-30.478 34.348-48.474 10.394-53.236 9.239-53.2-12.912m-113.122-10.953c-52.551-28.734-87.792-68.642-109.442-123.92-11.126-28.394-7.477-35.99 17.364-36.18 8.995-.066 16.513 9.179 29.234 35.96 18.15 38.23 53.885 74.577 90.28 91.852 18.585 8.816 20.722 12.013 17.293 25.907-6.137 24.847-9.965 25.394-44.729 6.381m246.577-38.009c-9.322-14.233-8.935-15.578 11.388-39.324 25.389-29.663 37.24-53.581 46.58-94.048 6.787-29.401 7.757-30.479 27.52-30.479h20.49l-4.036 28.276c-5.459 38.295-32.871 95.882-59.85 125.741-12.203 13.513-24.495 24.568-27.31 24.568-2.822 0-9.472-6.632-14.782-14.734m-150.832-45.539c-50.51-9.459-94.364-50.182-107.597-99.912-16.46-61.837 20.15-127.604 82.673-148.54 46.42-15.543 99.554-1.333 137.2 36.687 89.566 90.465 12.828 235.202-112.276 211.765m-15.983-46.11c-87.536-40.485-60.058-167.512 36.21-167.423 45.938.042 86.346 39.985 86.388 85.393.065 65.934-64.29 108.996-122.598 82.03M59.528 271.478c0-4.566 5.34-25.585 11.864-46.712C93.525 153.1 154.458 92.816 227.04 70.773c22.805-6.93 42.354-11.62 43.432-10.435 1.083 1.19 3.756 10.518 5.94 20.733 3.876 18.12 3.293 18.734-24.602 25.687-75.047 18.721-130.42 77.595-147.338 156.654-3.006 14.054-6.435 16.37-24.222 16.37-13.757 0-20.722-2.792-20.722-8.304m420.43-46.39c-14.555-40.98-66.839-93.805-107.907-109.02-16.37-6.066-30.687-11.703-31.818-12.525-1.131-.821-.197-9.947 2.071-20.275 3.667-16.698 5.876-18.37 19.913-15.025 59.474 14.162 120.14 66.63 149.987 129.718 20.174 42.646 21.192 49.402 8.179 54.396-22.115 8.49-29.496 3.513-40.426-27.27"/><glyph glyph-name="AMP-alt" unicode="" horiz-adv-x="595.281" d="M184.43 298.062c0-27.25 22.09-49.339 49.339-49.339s49.338 22.09 49.338 49.339-22.09 49.339-49.338 49.339c-27.25 0-49.34-22.09-49.34-49.34zM385.854 347.4c-.181 0-.357-.024-.536-.03l.029.03c-38.487 0-69.685 31.197-69.685 69.684 0 27.25-22.092 49.342-49.341 49.342s-49.336-22.092-49.336-49.342 22.089-49.336 49.336-49.336c.178 0 .357.027.538.03l-.029-.03c38.485 0 69.687-31.2 69.687-69.685s-31.202-69.682-69.687-69.682c-27.247 0-49.336-22.091-49.336-49.339 0-27.25 22.092-49.338 49.336-49.338 27.25 0 49.339 22.089 49.339 49.338 0 38.488 31.2 69.685 69.685 69.685 27.247 0 49.338 22.092 49.338 49.336 0 27.248-22.091 49.337-49.338 49.337zm-88.212 247.88C133.259 595.281 0 462.022 0 297.641S133.259 0 297.642 0C462.022 0 595.28 133.259 595.28 297.642c0 164.38-133.259 297.639-297.64 297.639zm-.003-523.478c-124.725 0-225.838 101.108-225.838 225.836 0 124.733 101.113 225.839 225.838 225.839 124.73 0 225.836-101.108 225.836-225.839.003-124.728-101.105-225.836-225.836-225.836z"/><glyph glyph-name="AMP" unicode="" horiz-adv-x="595.281" d="M297.64 595.281C133.255 595.281 0 462.027 0 297.639 0 133.254 133.259 0 297.642 0 462.022 0 595.28 133.256 595.28 297.64c-.002 164.386-133.26 297.64-297.641 297.64zM148.438 298.196c0 35.912 29.11 65.023 65.026 65.023 35.909 0 65.022-29.111 65.022-65.023 0-35.915-29.113-65.023-65.022-65.023-35.915 0-65.026 29.11-65.026 65.023zm265.46-65.023c-50.72 0-91.837-41.118-91.837-91.84 0-35.915-29.114-65.023-65.026-65.023s-65.023 29.111-65.023 65.023c0 35.912 29.111 65.023 65.023 65.023 50.72 0 91.842 41.118 91.842 91.84s-41.122 91.84-91.842 91.84l.037.033c-.239-.002-.472-.034-.709-.034-35.914 0-65.025 29.114-65.025 65.026 0 35.91 29.11 65.025 65.025 65.025 35.91 0 65.023-29.116 65.023-65.025h.005c0-50.725 41.115-91.842 91.837-91.842l-.036-.037c.236.005.47.037.706.037 35.914 0 65.025-29.111 65.025-65.023.003-35.912-29.11-65.023-65.025-65.023z"/><glyph glyph-name="ANC-alt" unicode="" horiz-adv-x="595.281" d="M297.642 595.281C133.259 595.281 0 462.022 0 297.641S133.259 0 297.642 0C462.022 0 595.28 133.259 595.28 297.642c0 164.38-133.259 297.639-297.64 297.639zm-.003-518.128c-60.56 0-115.409 24.42-155.256 63.941l23.756 43.131h263.412l23.57-42.91c-39.868-39.653-94.808-64.162-155.482-64.162zm86.837 189.493l21.26-38.87h-215.85l21.189 38.87h173.4zM234.82 310.2l62.818 115.217L360.657 310.2H234.82zm248.046-132.201L297.639 518.133 112.201 178.322c-22.175 34.397-35.053 75.354-35.053 119.32 0 121.774 98.717 220.494 220.491 220.494 121.775 0 220.49-98.717 220.49-220.494 0-44.107-12.955-85.183-35.262-119.643z"/><glyph glyph-name="ANC" unicode="" horiz-adv-x="595.281" d="M475.706 144.536h-355.58l-32.072-58.22C141.848 32.965 215.89-.002 297.64-.002c81.902 0 156.07 33.085 209.887 86.614l-31.82 57.925zM297.64 595.28C133.256 595.281 0 462.02 0 297.639c0-59.35 17.38-114.642 47.318-161.073l250.321 458.715zm297.642-297.642c0 164.38-133.259 297.642-297.642 297.642l250.038-459.148c30.111 46.52 47.604 101.967 47.604 161.506zM212.84 314.59h169.866L297.64 470.123zm-60.66-111.262h291.373l-28.69 52.47h-234.08z"/><glyph glyph-name="ANT" unicode="" horiz-adv-x="595.281" d="M236.934 482.803c-54.748-24.127-125.355-66.017-158.738-94.18L58.165 371.73l10.316-38.532c18.162-67.856 57.665-142.017 99.942-187.615 40.705-43.908 103.99-86.054 129.217-86.054 24.99 0 88.382 42.003 128.176 84.929 41.51 44.77 77.137 110.734 98.513 182.394l13.15 44.098-20.21 17.061c-49.848 42.08-164.916 103.662-213.676 114.354-9.828 2.155-32.46-4.489-66.66-19.561m17.806-73.524c6.708-8.107 4.613-9.828-16.21-13.346-61.272-10.352-113.371-73.499-113.484-137.551-.078-40.843 81.077-134.82 143.92-166.667l29.193-14.793 30.681 16.603c29.752 16.096 99.763 75.72 99.763 84.958 0 2.512-7.834 6.131-17.4 8.048-21.06 4.209-42.128 25.437-42.128 42.45 0 17.251 16.347 38.895 29.371 38.895 12.156 0 26.217-13.858 20.186-19.894-2.155-2.155-1.262-3.917 1.989-3.917 14.9 0 31.794 28.157 31.794 52.986 0 22.817-3.257 28.663-31.634 56.814-36.264 35.979-81.571 56.129-138.022 61.397-31.918 2.976-34.9 2.34-28.02-5.983m84.572-37.02c0-7.316 25.758-15.275 37.431-11.56 12.805 4.071 12.84 4.31 1.262 8.84-13.316 5.202-38.693 6.988-38.693 2.72"/><glyph glyph-name="ARCH-alt" unicode="" horiz-adv-x="595.281" d="M308.535 555.715L0 39.566h308.535l-11.58 23.711H43.29l152.2 263.594L352.648 39.566h243.187z"/><glyph glyph-name="ARCH" unicode="" horiz-adv-x="595.281" d="M297.631 595.281C133.251 595.281 0 462.031 0 297.65S133.254.018 297.631.018 595.263 133.272 595.263 297.65 462.009 595.28 297.63 595.28zm29.547-416.9L242.33 333.497l-82.174-142.31h136.955l6.252-12.804h-166.58L303.362 457.05l155.114-278.67H327.178z"/><glyph glyph-name="ARDR-alt" unicode="" horiz-adv-x="595.28" d="M297.64 594.499C133.69 594.499.783 461.592.783 297.64.782 133.687 133.689.78 297.641.78s296.857 132.907 296.857 296.86c0 163.952-132.906 296.859-296.857 296.859zm-173.979-409.79L296.26 486.217l44.532-76.711-131.06-224.799h-86.07zm92.194 0l70.584 121.287 44.062-54.542-114.646-66.746zm176.269.067L288.6 311.035l82.652 45.043 100.366-171.302h-79.495z"/><glyph glyph-name="ARDR" unicode="" horiz-adv-x="595.28" d="M295.28 555.55L0 39.732h147.242l224.219 384.582zM157.722 39.732l196.13 114.191-75.379 93.308zm265.85 293.179l-141.396-77.062L459.282 39.851H595.28z"/><glyph glyph-name="ARK-alt" unicode="" horiz-adv-x="595.281" d="M0 297.64C0 133.258 133.258 0 297.64 0c164.383 0 297.641 133.258 297.641 297.64 0 164.383-133.258 297.641-297.64 297.641C133.257 595.281 0 462.023 0 297.641zm296.776 40.58l-177.72-181.73 178.518 281.637 178.65-283.354L296.777 338.22zm25.788-72.191H267l28.574 30.488 26.99-30.743v.255zm-107.139-50.011l-.005.39 31.503 31.279v.13l96.111.403 32.434-32.202H215.425z"/><glyph glyph-name="ARK" unicode="" horiz-adv-x="595.281" d="M297.536 359.28L30.955 85.92 298.73 509.56 566.708 83.34 297.536 359.28zm38.681-108.588h-83.346l42.86 45.856 40.486-46.242v.386zm-160.71-75.227l-.006.586 47.253 47.05v.196l144.168.605 48.648-48.437H175.51z"/><glyph glyph-name="ARN" unicode="" horiz-adv-x="595.281" d="M243.637 546.952c97.347 7.813 180.166-3.256 241.591-32.313 18.938-8.966 33.69-20.277 36.015-27.662 5.897-18.584-3.032-180.221-12.557-227.193-8.743-43.158-27.271-79.99-57.537-114.48-24.407-27.792-133.288-99.17-151.295-99.17-19.142 0-121.028 67.844-151.48 100.882-28.388 30.787-50.562 75.973-58.914 119.986-3.237 17.04-7.683 74.782-9.878 128.32l-3.981 97.31 15.496 10.157c29.392 19.254 101.179 40.033 152.54 44.163zm-23.383-17.933c-36.294-5.934-105.55-27.513-109.662-34.173-4.167-6.734 67.75-131.725 75.712-131.613 6.083.093 99.43 158.717 99.43 168.967 0 4.67-24.852 3.46-65.48-3.181zm126.758-53.613c57.835-107.56 60.625-112.192 67.545-112.247 3.74-.019 22.9 29.485 42.582 65.592l35.79 65.648-21.745 9.153c-31.606 13.32-75.88 24.127-119.299 29.15l-38.023 4.39 33.168-61.704zm-95.413-30.433c-33.112-59.38-47.399-91.097-47.622-105.737-.465-29.541 79.879-175.534 96.584-175.534 8.8 0 21.988 18.9 53.799 77.09 53.854 98.481 53.854 97.7-3.963 206.32-24.109 45.297-45.576 82.428-47.678 82.52s-25.113-38.004-51.12-84.66zM92.678 482.847c-5.544-8.966 8.464-206.19 16.63-234.429l6.772-23.383 24.313 43.734c34.303 61.742 32.815 83.916-10.92 161.842-18.081 32.22-34.637 55.715-36.795 52.218zm376.05-55.863c-42.823-78.577-44.33-94.892-13.915-150.662 12.371-22.658 24.667-43.493 27.327-46.302s7.646 9.246 11.069 26.788c8.557 43.958 18.77 214.394 13.43 223.956-2.808 5.023-16.24-13.99-37.911-53.78zm-179.03-8.297c-2.177-2.176-3.963-15.496-3.963-29.578 0-24.518-1.377-26.49-32.61-46.469-21.821-13.97-31.513-23.718-29.28-29.522 2.901-7.534 6.417-7.553 27.4-.149 13.246 4.688 26.435 8.501 29.3 8.501 9.375 0 5.915-46.06-3.72-49.78-18.12-6.957-8.093-13.412 20.834-13.412 28.313 0 36.87 4.52 23.811 12.593-7.31 4.52-7.98 50.6-.744 50.6 2.865 0 16.036-3.814 29.3-8.502 20.778-7.33 24.536-7.348 27.326-.056 2.121 5.525-7.999 15.645-29.299 29.262-29.038 18.584-32.535 22.993-32.535 41.242 0 33.261-11.757 49.334-25.802 35.289zM152.15 267.225c-30.136-53.612-29.82-52.44-20.425-73.089 5.785-12.706 16.128-17.059 74.224-31.215 37.13-9.06 69.22-14.733 71.34-12.613 5.47 5.47-82.353 164.95-90.91 165.08-3.907.055-19.31-21.617-34.229-48.144zm211.809-32.33c-24.09-44.442-42.284-82.317-40.424-84.177s33.131 4 69.48 13.021c53.78 13.338 67.9 19.142 75.769 31.141 9.32 14.212 8.669 16.594-17.896 66.188-15.16 28.294-31.047 52.161-35.326 53.036-4.576.93-25.783-31.625-51.585-79.21zm19.997-84.345c-63.825-17.467-80.363-30.285-80.363-62.281 0-12.52 2.698-22.77 6.009-22.77 9.99 0 102.872 63.342 121.605 82.93 20.295 21.226 22.137 21.133-47.25 2.14zm-216.105-1.376c7.962-12.743 112.266-83.693 123.037-83.693 3.87 0 6.752 9.748 6.752 22.77 0 32.963-16.76 45.743-79.21 60.29-63.192 14.733-59.378 14.696-50.598.614z"/><glyph glyph-name="AST" unicode="" horiz-adv-x="595.281" d="M150.863 439.54C60.706 348.297 2.14 288.533 2.525 288.064c1.312-1.094 12.792-11.172 17.646-15.31 37.296-31.954 81.22-57.968 127.223-75.388 24.582-9.218 55.715-17.733 78.215-21.404 29.13-4.689 48.008-6.25 75.131-6.173 24.582 0 37.53.939 62.728 4.61 55.56 8.045 109.424 27.265 157.277 56.014 10.71 6.483 23.116 14.843 23.116 15.546 0 .39.31.545.617.312.385-.236 1.851.624 3.314 1.875 1.464 1.248 3.082 2.265 3.622 2.341.461 0 .925.236.925.627 0 .312 1.54 1.563 3.467 2.733 1.928 1.25 3.315 2.501 3.082 2.892-.231.312.233.546 1.001.467.771 0 1.233.393 1.08 1.094-.154.626 0 .938.308.626.385-.47 5.472 2.89 7.245 4.844.231.236 2.234 1.796 4.469 3.514 2.234 1.72 3.855 3.514 3.697 4.064-.23.546.079.78.771.467.695-.236 1.08.079 1.08.94 0 .702.386 1.014.848.778.385-.312 1.463.079 2.31.86 1.466 1.33 1.466 1.406-.23 3.36-1.54 1.72-1.54 1.796-.155.623 1.851-1.56 3.083-1.717 3.933-.312.307.47 2.001 1.875 3.698 3.048 1.694 1.172 3.776 3.204 4.623 4.452.77 1.251 1.773 2.109 2.08 1.954.309-.236.616.236.616 1.015 0 1.172.154 1.25.77.236.386-.627.772-.781.772-.315 0 .472-.54 1.33-1.154 1.875-.928.782-1.16.782-1.16-.233 0-.703-.692-1.094-1.848-1.015-1.002 0-1.694.39-1.463.703.23.39.847.47 1.463.236 1.387-.55 1.387 1.17 0 3.044-.926 1.327-1.233 1.406-2.465.391-1.233-1.093-1.233-1.015-.386.624.617 1.173.617 1.72.08 1.72-.465 0-1.005-.547-1.312-1.25-.386-1.015-.54-1.015-1.08-.158-.386.548-.693 1.409-.693 1.8 0 .466.307.311.693-.315.464-.703.85-.78 1.156-.158.31.394-.155 1.487-1.078 2.423-.85.86-1.542 1.33-1.542 1.018-.078-.393-.54.233-1.154 1.327-.618 1.093-1.08 1.641-1.159 1.25 0-.471-.768.313-1.77 1.718-1.311 1.797-2.082 2.187-2.698 1.563-.616-.624-.693-.393-.386.936.386 1.485.231 1.72-.847 1.33-.925-.393-1.232-.157-1.078.858.153.938-.233 1.33-1.542 1.25-1.153 0-1.463.236-1.001.703.847.86-10.634 13.204-11.636 12.577-.385-.233-.54-.157-.464.236.31.936-4.392 5.701-5.546 5.701-.54 0-.771.236-.464.548.464.47-255.99 261.237-256.915 261.08-.228 0-67.5-67.81-149.492-150.696zm244.74 31.094C506.565 358.218 530.838 334 531.84 334.624c.386.236.464.157.231-.236-.538-.936 41.381-43.432 42.152-42.73.231.237.462-.626.462-1.953s-.386-2.656-.923-2.968c-.54-.391-.617-.236-.231.469.307.545-1.773-.939-4.702-3.205-6.01-4.843-8.014-6.718-7.552-7.106.157-.236-.153-.394-.693-.394-.54 0-4.392-2.653-8.63-5.858-8.323-6.328-24.12-17.263-27.587-19.062-1.233-.703-1.928-1.56-1.618-2.03.385-.548.23-.624-.386-.314-.54.393-2.158-.234-3.776-1.327-14.025-9.451-46.16-25.388-67.967-33.748-31.67-12.107-73.59-22.5-100.56-24.92-2.544-.236-8.63-.86-13.485-1.406-5.549-.624-19.343-.939-36.603-.939-23.35 0-30.286.315-43.925 1.72-68.58 7.5-131.694 30.78-189.564 69.919-9.556 6.482-27.74 20.31-34.29 26.092-1.081.936-2.775 2.342-3.856 3.278l-1.924 1.566 136.392 138.273c75.056 76.012 136.857 138.273 137.474 138.273.54.078 43.46-42.887 95.323-95.384zM266.834 331.189c-29.126-2.345-37.605-3.593-74.208-11.25-18.338-3.75-54.865-16.094-76.518-25.702-4.007-1.797-8.707-3.829-10.48-4.532-1.848-.703-3.314-1.484-3.314-1.796 0-.236 11.174-.703 24.892-.939 39.068-.703 66.886-4.453 106.88-14.373 6.163-1.485 11.48-3.047 11.942-3.436.386-.393 1.312-.705 2.004-.705 3.776 0 44.232-14.607 60.414-21.716 15.643-6.955 39.069-19.143 51.86-27.031l7.092-4.375 9.477 2.03a974.923 974.923 0 0 0 11.714 2.423c3.776.546 26.276 7.107 36.755 10.78 14.334 5.002 34.37 13.671 47.623 20.626 4.468 2.263 10.096 5.232 12.561 6.482 2.696 1.406 4.238 2.578 3.931 3.126-.31.467-.233.624.307.391.925-.627 11.866 5.546 11.328 6.483-.157.314.693.781 2.004 1.093 1.311.236 2.156.782 1.849 1.25-.231.392.23.782 1.002.782 1.848 0 3.697 1.954 2.465 2.733-.386.236-1.078.236-1.54 0-.385-.233-.77-.157-.77.315 0 1.639-33.059 18.514-50.783 26.014-42.535 17.89-80.298 27.029-128.379 31.09-8.323.703-52.4.86-60.105.237zm75.132-18.126c20.575-2.733 38.606-6.092 52.71-9.842 27.123-7.188 47.237-14.219 68.273-23.984 1.928-.86 5.625-2.578 8.169-3.75 2.62-1.249 4.93-2.578 5.24-2.969.77-1.248-3.16-3.671-15.336-9.608-25.044-12.108-49.624-20.78-78.829-27.656l-11.02-2.654-9.4 5.468c-19.729 11.483-55.02 28.2-74.904 35.465-17.26 6.252-35.522 11.953-52.397 16.33-7.862 2.03-39.302 8.278-44.235 8.826-2.62.236-4.93.782-5.16 1.094-.926 1.563 29.821 8.281 55.174 12.031 19.726 2.89 29.282 3.436 59.334 3.202 25.199-.236 31.595-.469 42.383-1.953zm119.441-143.82c-1.924-1.25-6.24-3.828-9.632-5.858-3.39-2.032-8.09-4.844-10.403-6.252-32.132-19.138-59.488-33.278-81.603-42.105-43.154-17.266-84.074-26.329-133.62-29.452-7.708-.47-14.104-.939-14.18-1.017-.155-.079 19.728-20.31 44.077-44.92l44.232-44.684 60.954 61.95c33.598 34.06 63.496 64.606 66.504 67.808 8.628 9.22 14.486 16.484 13.946 17.344-.31.47-.231.624.23.39 1.002-.623 7.396 7.029 6.782 8.046-.31.47.079.548.923.236 1.233-.472 1.233-.393.31.78-.926 1.171-.926 1.329.23.86 1.312-.546 1.773.86.462 1.64-.383.237-.769.782-.769 1.25 0 .393.307.705.769.705.464 0 .695-.236.619-.548-.234-.703.383-1.015 1.77-1.015.464 0 .616.545.385 1.248-.23.627-.152 1.017.231.781 1.004-.624 2.622 1.642 1.928 2.736-.307.545-.231.702.23.469 1.312-.86 7.708 8.045 6.627 9.139-.23.236-.152.47.233.47.462 0 1.464.545 2.31 1.172 2.545 1.95.08 1.172-3.545-1.173zm-72.435-60.7c0-.39-9.477-10.078-20.958-21.561a20286.644 20286.644 0 0 1-44.387-44.528l-23.27-23.594-25.044 25.39C261.52 58.233 250.27 69.87 250.27 70.107c0 .236 3.236.86 7.164 1.33 42.152 4.998 89.004 18.199 123.834 34.762 5.856 2.813 7.705 3.359 7.705 2.344z"/><glyph glyph-name="ATL" unicode="" horiz-adv-x="595.281" d="M220.254 532.324c0-1.881 11.072-22.377 24.603-45.545l24.603-42.128-17.162-31.812c-9.441-17.495-21.436-37.502-26.657-44.455-9.447-12.585-9.548-12.549-22.805 8.905-11.638 18.829-16.257 21.55-36.645 21.55-12.829 0-23.324-1.543-23.324-3.43 0-1.88 11.073-22.376 24.603-45.544l24.603-42.129-17.162-31.811c-9.44-17.496-21.436-37.503-26.656-44.456-9.447-12.584-9.549-12.548-22.805 8.905-12.114 19.597-15.746 21.55-40.105 21.55H58.558l11.608-19.347c6.381-10.644 18.763-31.824 27.514-47.075l15.912-27.728-26.675-43.706-26.669-43.705 48.254-1.744c26.537-.959 51.504-.5 55.48 1.03 3.977 1.524 18.09 22.346 31.36 46.277l24.126 43.503-12.739 22.668c-12.572 22.365-12.59 22.948-1.649 43.271 6.102 11.334 12.686 20.573 14.62 20.537 1.941-.035 14.68-19.46 28.312-43.158l24.787-43.092-15.47-26.788c-8.507-14.733-20.592-35.49-26.86-46.134l-11.394-19.346H326.34l26.49 45.866 26.496 45.86-11.054 18.133c-15.525 25.454-14.251 27.978 13.066 25.906 20.716-1.565 25.93-4.91 36.45-23.376l12.268-21.544-24.538-41.306c-13.495-22.716-24.537-43.158-24.537-45.42 0-7.709 99.376-4.584 105.567 3.322 3.209 4.09 15.46 24.882 27.234 46.193l21.4 38.753-26.704 46.075c-26.216 45.23-27.139 46.075-50.313 46.075-12.983 0-23.609 1.25-23.609 2.774s4.37 11.941 9.715 23.144c9.662 20.27 9.584 20.603-15.299 65.683l-25.013 45.313h-53.504l12.602 22.425 12.602 22.424-25.615 45.902-25.615 45.908-52.087.125c-28.645.071-52.087-1.41-52.087-3.298m61.308-160.267c-9.519-19.966-9.405-21.77 2.786-43.456 12.656-22.52 12.662-22.704 1.137-40.187-16.102-24.425-15.037-26.496 13.644-26.443 22.978.042 26.466 2.09 37.99 22.323l12.692 22.276-24.597 43.092c-13.525 23.698-26.65 43.122-29.157 43.158-2.512.036-9.03-9.31-14.495-20.763"/><glyph glyph-name="AUR-alt" unicode="" horiz-adv-x="595.28" d="M297.592 595.281C133.235 595.281 0 462.157 0 297.921 0 133.699 133.235.57 297.591.57c164.354 0 297.592 133.13 297.592 297.35.001 164.237-133.237 297.361-297.59 297.361zm75.919-237.037l20.552-39.388-137.676-71.822V132.158h-44.42v322.043h44.42v-50.337l117.125 61.097 20.552-39.382-137.676-71.825v-56.61l117.123 61.1z"/><glyph glyph-name="AUR" unicode="" horiz-adv-x="595.28" d="M423.468 403.512L214.422 294.465v101.036L460.14 523.687l-36.672 70.295-209.046-109.047v89.85h-79.28V0h79.28v205.027L460.14 333.22z"/><glyph glyph-name="BANX-alt" unicode="" horiz-adv-x="595.281" d="M487.248 216.538l31.048 50.6 28.489-50.6h48.06L541.26 296.28l49.121 72.08h-45.086l-26.998-47.203-25.517 47.202h-46.567l49.546-72.079-54.011-79.74zm-255.621 151.82h-40.191l-56.768-151.82h40.611l9.57 27.216h52.946l9.356-27.216h41.256l-56.78 151.82zm-37.637-95.257l17.225 53.156h.43l16.79-53.156H193.99zm-87.66 26.578c11.904 5.956 19.983 17.007 19.983 30.617 0 31.684-28.701 38.488-54.856 38.062H.436v-151.82h72.932c32.539 0 59.111 11.06 59.111 47.205 0 17.222-9.99 31.255-26.15 35.936zm-66.344 38.06h30.62c8.298 0 16.165-3.613 16.165-14.674 0-10.839-9.358-14.459-16.165-14.459h-30.62v29.132zm31.68-89.52h-31.68v34.867h31.68c11.913 0 21.268-4.457 21.268-17.855 0-12.547-8.72-17.012-21.267-17.012zm321.12 26.58l-52.735 93.56h-40.616v-151.82h37.216v94.621h.42l52.736-94.622h40.608v151.82h-37.209V274.8zM74.683 196.224a2.273 2.273 0 0 1-2.273-2.27v-54.642a2.275 2.275 0 0 1 2.273-2.27h33a2.276 2.276 0 0 1 2.274 2.27v54.641a2.273 2.273 0 0 1-2.273 2.27H74.683zm33.003 190.092a2.276 2.276 0 0 1 2.274 2.268v54.64a2.273 2.273 0 0 1-2.274 2.274H74.683a2.27 2.27 0 0 1-2.273-2.273v-54.639a2.275 2.275 0 0 1 2.273-2.268h33.003zm-71.973 0a2.276 2.276 0 0 1 2.273 2.268v54.64a2.27 2.27 0 0 1-2.273 2.274H2.709a2.268 2.268 0 0 1-2.273-2.273v-54.639a2.271 2.271 0 0 1 2.273-2.268h33.004zM2.709 196.224a2.27 2.27 0 0 1-2.273-2.27v-54.642a2.272 2.272 0 0 1 2.273-2.27H35.71a2.276 2.276 0 0 1 2.273 2.27v54.641a2.27 2.27 0 0 1-2.273 2.27H2.709z"/><glyph glyph-name="BANX" unicode="" horiz-adv-x="595.281" d="M138.574 288.294h-24.501v-26.969h24.501c9.702 0 16.446 3.45 16.446 13.16-.003 10.36-7.237 13.81-16.446 13.81zM246.5 321.68l-13.322-41.11h26.64l-12.988 41.11zm-96.247-2.468c0 8.555-6.087 11.35-12.5 11.35h-23.68v-22.53h23.68c5.263 0 12.5 2.796 12.5 11.18zm147.494 275.847C133.429 595.058.22 461.848.22 297.528S133.43 0 297.747 0C462.075 0 595.28 133.206 595.28 297.529S462.075 595.058 297.747 595.058zM139.149 412.145c0 .972.785 1.756 1.756 1.756h25.525c.97 0 1.757-.784 1.757-1.756v-42.259a1.759 1.759 0 0 0-1.757-1.756h-25.525c-.97 0-1.756.787-1.756 1.756v42.26zm-55.67 0c0 .972.785 1.756 1.759 1.756h25.522c.974 0 1.759-.784 1.759-1.756v-42.259a1.759 1.759 0 0 0-1.759-1.756H85.238a1.759 1.759 0 0 0-1.759 1.756v42.26zm29.043-235.05a1.759 1.759 0 0 0-1.76-1.758H85.24a1.759 1.759 0 0 0-1.758 1.759v42.259a1.759 1.759 0 0 0 1.758 1.759h25.523a1.759 1.759 0 0 0 1.759-1.76v-42.258zm55.665 0a1.76 1.76 0 0 0-1.757-1.758h-25.525a1.759 1.759 0 0 0-1.756 1.759v42.259a1.759 1.759 0 0 0 1.756 1.759h25.525a1.759 1.759 0 0 0 1.757-1.76v-42.258zm-28.298 59.726H83.48v117.423h54.927c20.231.328 42.43-4.932 42.43-29.44 0-10.523-6.247-19.075-15.456-23.679 12.5-3.62 20.226-14.477 20.226-27.796 0-27.958-20.554-36.508-45.717-36.508zm134.404 0l-7.237 21.053h-40.95l-7.4-21.053h-31.41l43.908 117.423h31.082L306.2 236.82h-31.906zm141.737 0h-31.405l-40.786 73.184h-.326v-73.184h-28.785v117.423h31.415l40.784-72.36h.328v72.36h28.775V236.82zm90.002 0l-22.028 39.141-24.014-39.14h-35.192l41.776 61.673-38.327 55.749h36.02l19.74-36.508 20.878 36.508h34.865l-37.986-55.75 41.443-61.673h-37.175z"/><glyph glyph-name="BAT-alt" unicode="" horiz-adv-x="595.281" d="M297.64 595.281C133.335 595.281 0 461.946 0 297.641S133.335 0 297.64 0s297.641 133.335 297.641 297.64-133.335 297.641-297.64 297.641zm-11.548-94.836V370.5l-68.127-118.914-112.801-64.972 180.928 313.832zm-170.07-332.99l112.54 65.618h138.155l112.534-65.617H116.022zm260.241 84.13l-69.174 118.91v129.948L488.542 186.61l-112.279 64.974z"/><glyph glyph-name="BAT" unicode="" horiz-adv-x="595.281" d="M281.349 561.357L0 74.045l174.744 100.888L281.35 359.581zm123.552-415.02H190.377L15.63 45.45h564.01zM313.932 359.57l106.602-184.637L595.281 74.04 313.932 561.349z"/><glyph glyph-name="BAY-alt" unicode="" horiz-adv-x="595.281" d="M382.215 295.922l7.736 10.054c2.347 3.174 15.178 26.063 15.178 50.373 0 9.46-5.623 26.29-17.955 40.886-7.463 8.83-23.388 23.646-46.247 23.646H251.86v-29.578h83.689c17.096 0 32.628-11.741 37.784-28.549a41.039 41.039 0 0 0-9.904-41.175c-3.434-3.436-17.005-15.317-27.877-24.764 11.507-10.925 27.068-25.725 30.903-29.557 12.663-12.663 10.235-35.256 3.006-45.241-5.854-8.083-16.26-18.827-38.986-18.827H217.688v141.055h32.266V235.462h80.518c8.214 0 10.403 2.17 12.377 4.83.375 1.286.438 3.583.142 4.788-6.009 5.916-30.164 28.827-42.561 40.563l-12.976 12.277 13.53 11.663c13.468 11.61 36.148 31.329 39.631 34.815.142.144 3.494 3.577 1.864 8.904-1.158 3.769-4.363 5.735-6.93 5.735H190.013V173.835h138.813c33.382 0 57.106 13 70.523 38.63 18.624 35.573-8.85 73.228-9.14 73.593l-7.994 9.864zm-84.298 299.359C133.382 595.281 0 461.899 0 297.364S133.382-.554 297.92-.554c164.533 0 297.917 133.382 297.917 297.918S462.453 595.28 297.917 595.28zM427.94 197.505c-11.624-22.2-28.904-38.091-51.373-47.236-14.175-5.77-30.24-8.697-47.74-8.697H157.743v249.734h61.845v61.846H340.93c26.604 0 51.78-12.463 70.898-35.087 15.77-18.674 25.572-42.325 25.572-61.713 0-24.759-8.917-47.01-15.629-59.776a126.006 126.006 0 0 0 11.644-26.817c7.733-25.643 5.844-50.63-5.475-72.254z"/><glyph glyph-name="BAY" unicode="" horiz-adv-x="595.281" d="M366.72 0H39.86v477.126h118.157v118.155h231.824c50.817 0 98.919-23.808 135.443-67.036 30.132-35.679 48.853-80.857 48.853-117.906 0-47.302-17.033-89.808-29.851-114.204a241.116 241.116 0 0 0 22.241-51.229c14.79-48.992 11.17-96.732-10.458-138.049-22.194-42.406-55.224-72.767-98.152-90.241C430.832 5.591 400.149 0 366.72 0zM101.505 61.647H366.72c63.769 0 109.096 24.835 134.732 73.796 35.573 67.963-16.908 139.908-17.456 140.609l-15.275 18.844 14.784 19.204c4.473 6.067 28.993 49.793 28.993 96.24 0 18.07-10.742 50.22-34.3 78.116-14.26 16.873-44.693 45.178-88.352 45.178H219.67v-56.51h159.894c32.657 0 62.338-22.425 72.176-54.544a78.39 78.39 0 0 0-18.91-78.668c-6.565-6.56-32.487-29.258-53.266-47.31 21.987-20.87 51.72-49.15 59.044-56.47 24.194-24.195 19.553-67.35 5.74-86.435-11.18-15.443-31.066-35.967-74.472-35.967H154.385v269.494h61.647V179.377H369.87c15.687 0 19.866 4.152 23.63 9.232.722 2.457.848 6.846.281 9.15-11.484 11.303-57.631 55.075-81.319 77.492l-24.785 23.457 25.848 22.28c25.74 22.184 69.05 59.855 75.712 66.517.273.273 6.678 6.835 3.56 17.015-2.205 7.192-8.327 10.956-13.235 10.956H101.505V61.647z"/><glyph glyph-name="BC-alt" unicode="" horiz-adv-x="595.281" d="M23.659 585.74s71.073-18.305 71.073-123.846V143.399c0-124.638-71.073-131.8-71.073-131.8V.993l116.154 5.57V589.72L23.66 595.28v-9.542zM467.46 453.272c1.588-84.684-32.626-117.742-32.626-117.742s83.941 27.05 82.343 123.315c-1.588 96.263-114.96 120.927-114.96 120.927s63.647-41.813 65.243-126.5zm-7.749-149.169s50.231-44.716 52.654-139.902C514.8 69.01 459.712 22.07 459.712 22.07S565.713 51.906 564.52 165.275c-1.194 113.37-104.807 138.83-104.807 138.83zm-33.623-20.682c-19.094 15.91-73.197 34.209-73.197 34.209s35.804 17.9 52.113 43.755c16.31 25.859 29.04 73.195 17.11 122.917-11.933 49.725-55.691 99.45-106.608 106.607-50.919 7.164-72.53-1.191-134.324-1.99V7.094S274.93.199 325.45.596c50.517.396 128.085 35.006 142.404 129.282 14.319 94.273-22.677 137.632-41.766 153.544zM233.958 540.39c9.148 8.75 56.486 24.266 101.436-6.764s56.615-121.856 19.49-170.121-129.675-35.537-129.675-35.537-.402 203.67 8.749 212.422zm185.099-413.169c-21.478-83.006-86.713-85.4-120.927-84.07-34.208 1.332-67.1.801-70.808 97.064-3.707 96.265-2.121 147.714-2.121 147.714s101.833 3.98 136.577-11.14c34.74-15.117 78.764-66.561 57.279-149.568z"/><glyph glyph-name="BCD" unicode="" horiz-adv-x="595.281" d="M168.67 487.35c35.53 17.095 39.604 17.69 126.813 18.155 88.53.484 90.799.168 129.008-17.71 33.038-15.458 43.735-24.666 70.969-61.016 17.635-23.55 34.024-46.06 36.405-50.06 4.186-6.975-224.049-272.545-234.225-272.545S59.23 369.744 63.416 376.72c2.381 3.98 18.789 26.527 36.442 50.096 26.435 35.29 38.6 45.986 68.811 60.533zm12.89-7.274l-29.763-13.86 31.047-15.83c29.262-14.92 35.885-15.83 114.796-15.83s85.535.91 114.797 15.83l31.047 15.83-29.764 13.86c-26.862 12.5-38.21 13.858-116.08 13.858s-89.217-1.358-116.08-13.858zm-74.558-61.742c-16.296-21.523-29.615-40.814-29.615-42.898 0-4.11 86.39-48.031 94.482-48.031 6.455 0 32.498 87.487 28.852 96.956-1.525 3.962-16.575 13.04-33.428 20.165l-30.657 12.947-29.616-39.12zm314.792 24.276l-33.596-14.975 14.863-48.627c8.167-26.75 15.998-49.799 17.356-51.25 3.274-3.441 97.477 42.525 97.477 47.567 0 3.925-58.84 83.358-61.22 82.65-.707-.223-16.408-7.124-34.88-15.365zM200.87 369.595l-16.147-53.054 54.747-95.766c30.118-52.664 56.292-95.766 58.17-95.766s28.072 43.102 58.17 95.766l54.748 95.766-32.294 106.109H217.017l-16.147-53.055zm67.006 5.432c0-8.725-3.962-11.906-14.882-11.906-9.264 0-14.882-3.367-14.882-8.929 0-4.91 4.019-8.929 8.93-8.929 7.087 0 8.929-8.594 8.929-41.67s-1.842-41.67-8.93-41.67c-4.91 0-8.929-4.018-8.929-8.929 0-5.562 5.618-8.929 14.882-8.929 10.92 0 14.882-3.18 14.882-11.905 0-6.623 3.963-11.906 8.93-11.906s8.929 5.283 8.929 11.906c0 6.548 2.679 11.905 5.953 11.905s5.952-5.357 5.952-11.905c0-6.549 2.68-11.906 5.953-11.906s5.953 5.357 5.953 11.906c0 7.44 3.962 11.905 10.585 11.905 29.969 0 49.836 41.502 28.387 59.305-6.66 5.525-7.143 9.636-2.027 17.803 9.338 14.956 1.786 29.95-19.086 37.819-10.622 4.018-17.84 11.03-17.84 17.337 0 5.841-2.679 10.604-5.953 10.604s-5.953-5.358-5.953-11.906c0-6.548-2.679-11.906-5.953-11.906s-5.953 5.358-5.953 11.906c0 6.623-3.962 11.906-8.929 11.906s-8.929-5.283-8.929-11.906zm-172.631-26.9c0-3.385 129.436-151.777 150.476-172.52 8.538-8.407 6.343-1.431-7.497 23.812-61.128 111.56-59.882 109.941-102.798 131.632-22.1 11.161-40.181 18.844-40.181 17.058zm184.537-17.746c0 18.082 1.898 20.835 14.454 20.835 7.944 0 18.659-4.204 23.793-9.339 13.84-13.84 2.046-32.33-20.612-32.33-16.203 0-17.654 1.71-17.654 20.834zm178.584 0c-41.186-20.91-40.646-20.202-101.309-130.962-17.635-32.2-18.1-34.247-4.8-20.835 31.234 31.513 149.137 167.293 147.035 169.302-1.228 1.172-19.644-6.716-40.926-17.505zm-178.584-50.599c0 21.598 1.414 23.811 15.273 23.811 21.616 0 38.302-10.361 38.302-23.81s-16.686-23.812-38.302-23.812c-13.86 0-15.273 2.214-15.273 23.811z"/><glyph glyph-name="BCH-alt" unicode="" horiz-adv-x="595.281" d="M530.448 112.762H425.589C483.282 153.202 521 220.157 521 295.91c0 75.75-37.717 142.705-95.41 183.147h107.565c-54.42 70.676-139.883 116.224-235.98 116.224-96.105 0-181.564-45.546-235.983-116.224h107.567c-57.697-40.445-95.41-107.4-95.41-183.147 0-75.753 37.713-142.708 95.41-183.148H63.897C118.419 44.062 202.653 0 297.174 0c94.518 0 178.752 44.061 233.274 112.762zM119.533 251.366c-25.07 97.998 34.144 197.743 132.253 222.782 98.108 25.044 197.958-34.104 223.025-132.105 25.068-97.999-34.143-197.744-132.252-222.785-98.106-25.038-197.96 34.11-223.026 132.108zm274.045 38.331c-3.401 14.612-11.478 23.124-20.395 26.846s-20.15 3.251-20.15 3.251 7.684 7.521 10.033 13.681c2.355 6.158 2.132 14.712 1.364 18.986s-4.547 22.06-20.872 28.687c-12.621 5.126-25.584 5.132-42.188 1.972l-9.084 35.52-21.926-5.596 8.976-35.098-16.696-4.264-8.98 35.1-21.923-5.593 8.982-35.1-43.13-11.01 5.816-22.736 12.674 3.234c3.462.884 9.703 2.066 13.062-.186 3.357-2.25 4.214-3.667 5.665-9.344l23.179-90.614c.55-2.153.82-4.917-.577-7.13-1.4-2.208-3.136-3.087-7.545-4.212l-13.112-3.343 2.224-27.456 43.128 11.008 8.953-35 21.92 5.595-8.953 34.999 16.697 4.261 8.953-34.998 21.926 5.596-9.097 35.575c5.577 1.778 10.751 3.551 13.73 4.747l.472.186c6.26 2.491 19.56 7.786 30.153 20.056 10.859 12.585 10.138 27.771 6.72 42.38zm-113.79 16.962l-10.813 42.26s6.81 2.391 13.702 4.043c6.892 1.65 12.984 2.99 22.707 2.526 9.722-.467 16.77-5.856 19.023-13.789 2.242-7.93.123-14.14-5.163-19.083-5.282-4.948-13.306-8.955-21.223-11.305-7.912-2.347-18.234-4.652-18.234-4.652zm65.034-49.899c-4.313-4.046-13.725-9.065-23.268-12.265-9.553-3.204-24.176-6.606-24.176-6.606l-12.015 46.97s13.749 4.272 24.792 6.328c11.042 2.05 20.866 1.62 25.486.616 4.621-1.002 12.945-3.671 15.693-14.418 2.748-10.738-2.198-16.581-6.512-20.625z"/><glyph glyph-name="BCH" unicode="" horiz-adv-x="595.281" d="M298.076 481.207c-15.123.027-30.496-1.835-45.826-5.745v.008C154.146 450.423 94.933 350.678 120 252.68c25.07-97.999 124.923-157.147 223.031-132.103 98.109 25.039 157.317 124.784 132.252 222.782-21.154 82.684-95.544 137.712-177.207 137.848zM0 480.368V114.074h169.225c-57.692 40.44-95.41 107.394-95.41 183.147 0 75.75 37.715 142.705 95.41 183.147H0zm426.056 0c57.692-40.442 95.41-107.397 95.41-183.147 0-75.753-37.715-142.708-95.41-183.147h169.225v366.294H426.056zm-133.301-60.412l9.087-35.52c16.6 3.16 29.562 3.152 42.186-1.977 16.322-6.624 20.103-24.41 20.874-28.684.763-4.274.989-12.834-1.366-18.986-2.35-6.162-10.028-13.686-10.028-13.686s11.22.47 20.148-3.252c8.908-3.724 16.99-12.23 20.396-26.843 3.417-14.604 4.128-29.792-6.723-42.375-10.592-12.27-23.898-17.567-30.153-20.058l-.469-.184c-2.979-1.193-8.15-2.97-13.733-4.746l9.097-35.573-21.92-5.599-8.956 34.999-16.697-4.262 8.953-34.998-21.92-5.599-8.953 35.004-43.13-11.006-2.22 27.453 13.113 3.344c4.405 1.13 6.141 2.003 7.539 4.209 1.398 2.213 1.128 4.98.577 7.135l-23.174 90.611c-1.453 5.678-2.308 7.094-5.664 9.344-3.362 2.253-9.606 1.073-13.068.181l-12.671-3.228-5.82 22.741 43.134 11.006-8.987 35.096 21.923 5.593 8.976-35.1 16.697 4.26-8.979 35.102 21.931 5.598zm9.614-63.06c-7.776.031-13.19-1.172-19.222-2.617-6.89-1.652-13.702-4.047-13.702-4.047l10.806-42.262s10.327 2.31 18.24 4.657c7.914 2.35 15.948 6.352 21.225 11.298 5.284 4.948 7.405 11.16 5.163 19.09-2.255 7.93-9.301 13.322-19.023 13.79a81.588 81.588 0 0 1-3.487.09zm23.407-62.943a86.355 86.355 0 0 1-15.15-1.455c-11.048-2.056-24.797-6.325-24.797-6.325l12.016-46.967s14.63 3.399 24.176 6.603c9.548 3.2 18.957 8.216 23.273 12.262 4.309 4.044 9.255 9.89 6.507 20.63-2.749 10.747-11.07 13.417-15.69 14.419-2.31.5-5.921.86-10.335.833z"/><glyph glyph-name="BCN-alt" unicode="" horiz-adv-x="595.281" d="M499.265 340.387s55.476 34.103 55.476 94.362c0 60.256-58.342 137.075-150.166 137.075h-257.91V403.517H0v-71.735h146.664v-95.165H0v-71.733h146.664V23.454h238.783c112.863 0 209.464 61.563 209.464 173.476-.003 111.886-95.646 143.457-95.646 143.457zM363.45 496.286c47.826 0 96.603-22.942 96.603-75.08 0-52.126-51.646-78.423-99.475-78.423H244.85v153.503h118.6zm16.156-382.575H244.851v166.417h133.905c88.947 0 125.76-36.81 125.76-90.858 0-54.04-64.648-75.56-124.91-75.56z"/><glyph glyph-name="BCN" unicode="" horiz-adv-x="595.281" d="M342.096 288.541H269.98v-89.624h72.572c32.455 0 67.27 11.584 67.27 40.69.003 29.108-19.824 48.934-67.726 48.934zm43.784 75.982c0 28.08-26.27 40.435-52.024 40.435h-63.873v-82.673h62.324c25.756 0 53.573 14.164 53.573 42.238zm-87.86 230.002C133.844 594.525.756 461.437.756 297.261.756 133.088 133.844 0 298.02 0c164.173 0 297.26 133.088 297.26 297.261 0 164.176-133.088 297.264-297.261 297.264zm47.682-444.217H217.097v76.166h-78.985v38.631H217.1v51.255h-78.988v38.637H217.1v90.643h138.903c49.457 0 80.877-41.375 80.877-73.825 0-32.455-29.874-50.822-29.874-50.822s51.507-17.001 51.507-77.26c-.003-60.27-52.03-93.425-112.81-93.425z"/><glyph glyph-name="BC" unicode="" horiz-adv-x="595.281" d="M334.927 331.682c19.146 24.893 13.13 71.738-10.051 87.742-23.184 16.005-47.599 7.999-52.318 3.489-4.72-4.515-4.513-109.556-4.513-109.556s47.733-6.567 66.882 18.325zm3.551-44.726c-17.918 7.796-70.435 5.743-70.435 5.743s-.817-26.533 1.092-76.184c1.919-49.646 18.878-49.373 36.52-50.06 17.651-.686 51.295.548 62.373 43.36 11.077 42.811-11.626 69.347-29.55 77.14zM297.802 594.96C133.508 594.96.32 461.773.32 297.479S133.508 0 297.802 0 595.28 133.185 595.28 297.48 462.095 594.96 297.8 594.96zm120.832-214.108c.82-49.648-42.472-63.6-42.472-63.6s17.645 17.052 16.824 60.726c-.822 43.68-33.644 65.243-33.644 65.243s58.473-12.72 59.292-62.369zm-194.63-233.267l-59.91-2.874v5.47s36.658 3.696 36.658 67.976v164.27c0 54.434-36.658 63.876-36.658 63.876v4.92l59.91-2.87V147.586zm95.74-3.077c-26.055-.207-74.41 3.35-74.41 3.35v300.08c31.872.412 43.018 4.72 69.278 1.03 26.263-3.689 48.832-29.34 54.985-54.986 6.156-25.643-.407-50.06-8.825-63.393-8.408-13.337-26.874-22.572-26.874-22.572s27.903-9.436 37.755-17.64c9.846-8.208 28.927-30.57 21.54-79.195-7.387-48.622-47.394-66.471-73.449-66.674zm69.246 11.075s28.41 24.213 27.161 73.302c-1.255 49.095-27.16 72.16-27.16 72.16s53.438-13.132 54.053-71.603c.617-58.471-54.054-73.859-54.054-73.859z"/><glyph glyph-name="BCY" unicode="" horiz-adv-x="647.045" d="M537.85 520.632l92.018-155.417a143.788 143.788 0 0 0 .796-145.15L545.226 72.077A143.788 143.788 0 0 0 419.124.19L238.515 2.174a143.788 143.788 0 0 0-122.148 70.522l-92.02 155.417a143.788 143.788 0 0 0-.797 145.151l85.44 147.986a143.788 143.788 0 0 0 126.102 71.891l180.606-1.984a143.788 143.788 0 0 0 122.15-70.522zM344.5 99.248c39.1 19.492 42.157 21.424 51.65 31.25 6.435 6.767 11.905 14.5 15.126 21.425 9.654 20.62 7.563 47.844-5.15 67.014-10.46 15.788-17.054 19.975-77.232 48.81-31.055 14.983-56.799 27.708-57.12 28.191-.323.483 24.135 12.725 54.382 27.222 30.253 14.5 58.57 28.835 62.913 32.059 26.066 19.009 35.72 55.896 22.204 84.731-10.94 23.357-19.469 29.963-72.564 55.899-33.146 16.107-38.618 18.203-45.857 18.203-14.643 0-27.837-8.377-35.4-22.393-3.218-6.12-3.38-8.857-3.86-53.641l-.483-47.203 14.48 7.41 14.643 7.248v37.7c0 41.4.322 42.85 9.654 42.85 5.63 0 74.338-33.503 82.382-40.27 14.64-12.245 19.147-35.602 10.295-53.644-2.413-4.992-6.758-11.115-9.812-13.53-2.899-2.577-27.998-15.305-55.51-28.514-52.296-25.128-56.96-28.19-62.111-40.594-5.309-12.886 0-33.186 10.784-41.399 3.054-2.094 27.512-14.66 54.38-27.547 27.032-12.886 51.169-25.45 53.742-28.03 8.369-7.89 12.872-19.009 12.872-31.734.161-13.372-3.537-22.712-12.388-31.895-7.08-7.088-77.07-43.01-84.15-43.01-2.255 0-5.634 1.128-7.242 2.738-2.574 2.416-2.896 5.8-2.896 40.594v38.179l-13.677 6.764c-7.563 3.706-14.16 6.766-14.643 6.766-.48 0-.642-21.263-.32-47.2.48-44.78.642-47.357 4.02-53.64 4.027-7.412 13.195-16.11 20.436-19.332 2.735-1.127 9.493-2.093 14.965-2.254 9.654 0 11.423.805 51.488 20.78zM192.61 218.776c2.093.966 6.435 6.283 9.814 11.92l5.792 10.151-2.413 15.785c-3.218 19.653-3.379 62.18-.322 80.866l2.255 13.373-4.506 8.374c-5.47 10.632-9.976 15.627-14 15.627-3.862 0-101.045-55.255-106.998-60.894-5.311-5.154-8.368-14.175-6.919-21.586 2.252-12.078 4.826-14.013 55.189-42.848 43.444-24.968 56.96-32.54 57.923-32.54.161 0 2.094.806 4.184 1.772zm325.503 26.58c27.354 15.624 51.97 30.607 54.87 33.184 9.65 9.182 10.134 25.933.802 34.955-5.309 5.156-103.461 61.377-107.16 61.377-3.862 0-9.653-6.445-14.482-15.788l-4.184-8.216 2.574-18.204c2.899-20.458 2.415-59.442-.964-80.222l-2.093-12.078 6.117-10.151c4.986-8.7 9.17-12.567 13.835-13.048.644-.16 23.33 12.565 50.685 28.191zM138.637 269.89c-24.645 13.85-44.775 25.767-44.775 26.253 0 1.61 88.584 51.862 89.712 50.895.483-.483 0-6.924-.967-14.174-2.254-16.752-2.254-52.828 0-71.19.967-7.73 1.45-14.818 1.128-15.624-.322-.805-20.62 9.827-45.098 23.84zm332.757-21.102c5.153 24.967 5.153 72.642.16 95.188-.644 2.74-.322 3.706 1.45 3.22 1.288-.319 22.066-11.756 45.903-25.444 32.536-18.684 43.004-25.45 41.554-26.736-2.415-2.258-87.296-50.576-88.906-50.576-.484 0-.645 1.933-.161 4.348z"/><glyph glyph-name="BELA" unicode="" horiz-adv-x="595.281" d="M154.346 380.088a166.233 166.233 0 0 1-22.12-83.116c0-92.083 74.502-166.755 166.419-166.755 91.914 0 166.416 74.651 166.416 166.755 0 92.082-74.502 166.752-166.416 166.752a165.394 165.394 0 0 1-83.73-22.62 44.945 44.945 0 0 1-84.698-21.095 45.018 45.018 0 0 1 24.126-39.923zM297.64 0C133.251 0 0 133.251 0 297.64s133.251 297.641 297.64 297.641 297.641-133.251 297.641-297.64S462.03 0 297.641 0zm1.005 214.933c-45.205 0-81.85 36.721-81.85 82.039 0 45.315 36.645 82.036 81.85 82.036s81.852-36.74 81.852-82.036c0-45.3-36.647-82.039-81.852-82.039z"/><glyph glyph-name="BETR" unicode="" horiz-adv-x="595.281" d="M241.791 529.514c-37.67-9.465-91.28-41.193-117.306-69.427-13.364-14.501-32.782-44.265-43.14-66.13-17.06-36.009-18.84-45.134-18.84-96.626 0-53.766 1.22-59.332 22.454-102.3 26.52-53.658 60.748-86.886 117.437-114.013 34.907-16.704 44.223-18.513 95.244-18.513 51.022 0 60.338 1.81 95.245 18.513 56.69 27.127 90.918 60.355 117.437 114.014 21.234 42.967 22.454 48.533 22.454 102.299 0 51.367-1.791 60.6-18.513 95.554-41.116 85.917-113.306 135.91-202.425 140.183-25.817 1.238-57.338-.363-70.047-3.554m20.133-124.723v-17.858h38.96c33.438 0 41.04-2.072 53.576-14.614 8.036-8.037 14.614-17.532 14.614-21.103 0-3.572-6.578-13.067-14.614-21.103-14.257-14.263-16.834-14.614-107.15-14.614h-92.537v-35.717h92.536c90.317 0 92.894-.351 107.151-14.614 18.257-18.257 18.257-23.948 0-42.206-12.537-12.542-20.138-14.614-53.575-14.614h-38.961v-35.717h51.194c50.283 0 51.551.358 71.434 20.24 17.483 17.483 20.24 24.192 20.24 49.271 0 16.508-3.954 34.682-9.162 42.123-8.072 11.518-8.132 14.697-.488 26.62 8.584 13.388 11.59 30.104 10.31 57.296-.363 7.697-9.769 23.097-20.9 34.229-19.883 19.882-21.15 20.24-71.434 20.24h-51.194v-17.86"/><glyph glyph-name="BFT-alt" unicode="" horiz-adv-x="595.28" d="M316.459 277.075c-6.74 5.107-15.683 7.665-26.795 7.665h-55.853v-64.129h54.872c5.018 0 9.81.5 14.38 1.467 4.585.994 8.613 2.631 12.097 4.915 3.46 2.29 6.25 5.392 8.318 9.323 2.065 3.938 3.128 8.938 3.128 15.053 0 12.001-3.382 20.558-10.147 25.706zm-18.3 317.451c-164.098 0-297.122-132.914-297.122-296.892C1.037 133.676 134.061.753 298.159.753c164.094 0 297.121 132.923 297.121 296.881.001 163.979-133.027 296.892-297.121 296.892zm72.868-376.682c-4.565-8.658-10.711-15.682-18.464-21.125-7.711-5.46-16.54-9.467-26.46-12.086-9.895-2.614-20.091-3.933-30.535-3.933H182.496v233.618h109.79c11.098 0 21.244-.97 30.392-2.935 9.147-1.972 16.986-5.182 23.526-9.66 6.535-4.463 11.595-10.417 15.19-17.841 3.598-7.401 5.39-16.552 5.39-27.467 0-11.78-2.658-21.586-7.991-29.448-5.363-7.861-13.253-14.288-23.7-19.293 14.379-4.173 25.12-11.41 32.169-21.773 7.095-10.369 10.635-22.865 10.635-37.485 0-11.78-2.282-21.969-6.87-30.572zM446.49 180.7h-51.318v50.372h51.318V180.7zM308.296 326.31c5.879 4.348 8.827 11.453 8.827 21.28 0 5.426-.994 9.904-2.948 13.396-1.955 3.469-4.578 6.225-7.827 8.194-3.281 1.929-7.044 3.318-11.278 4.08a76.125 76.125 0 0 1-13.25 1.145h-48.008v-54.636h51.943c9.16-.002 16.66 2.172 22.54 6.542z"/><glyph glyph-name="BFT" unicode="" horiz-adv-x="595.28" d="M314.624 341.698c7.656 5.659 11.495 14.91 11.495 27.71 0 7.063-1.293 12.902-3.84 17.448-2.543 4.52-5.963 8.106-10.196 10.669-4.27 2.512-9.171 4.318-14.68 5.317a99.798 99.798 0 0 1-17.26 1.49H217.62v-71.154h67.643c11.934 0 21.698 2.829 29.36 8.52zm10.63-64.124c-8.778 6.65-20.422 9.992-34.898 9.992h-72.735V204.05h71.462c6.531 0 12.78.644 18.728 1.903 5.968 1.296 11.214 3.426 15.75 6.408 4.507 2.98 8.142 7.015 10.836 12.14 2.683 5.13 4.073 11.641 4.073 19.601 0 15.627-4.406 26.774-13.216 33.473zM.304 595.281V0h595.281v595.281H.304zm396.017-394.837c-5.944-11.273-13.948-20.428-24.048-27.514-10.043-7.109-21.544-12.327-34.461-15.739-12.886-3.407-26.161-5.12-39.764-5.12H150.793v304.234h142.981c14.453 0 27.664-1.256 39.58-3.82 11.915-2.562 22.12-6.744 30.639-12.571 8.508-5.822 15.104-13.572 19.78-23.236 4.684-9.65 7.019-21.561 7.019-35.774 0-15.34-3.463-28.121-10.407-38.354-6.983-10.234-17.257-18.607-30.863-25.127 18.725-5.434 32.712-14.856 41.895-28.355 9.237-13.498 13.846-29.775 13.846-48.81-.002-15.342-2.97-28.609-8.942-39.814zm98.27-48.374H427.76v65.605h66.833V152.07z"/><glyph glyph-name="BKX" unicode="" horiz-adv-x="595.281" d="M241.796 529.521c12.705 3.2 43.864 4.818 69.238 3.609 87.823-4.186 159.294-51.938 199.512-133.324 21.003-42.507 22.23-48.125 22.23-102.147s-1.227-59.64-22.23-102.146c-26.769-54.19-61.24-87.935-116.582-114.146-35.958-17.04-45.167-18.844-96.324-18.844s-60.346 1.805-96.323 18.844c-55.343 26.211-89.813 59.956-116.582 114.146-20.984 42.45-22.23 48.18-22.23 101.848 0 51.492 1.785 60.626 18.844 96.622 10.361 21.858 29.783 51.622 43.14 66.132 26.024 28.239 79.637 59.956 117.307 69.425zm-.707-37.819c-57.482-18.175-102.277-56.886-127.093-109.81-13.189-28.146-15.775-41.95-15.775-84.27s2.586-56.124 15.775-84.27c26.62-56.774 84.586-102.332 146.44-115.093l19.346-4v27.271c0 26.323.614 27.253 17.858 27.253s17.859-.949 17.859-27.253V94.26l19.347 4c61.853 12.76 119.818 58.319 146.439 115.093 22.676 48.367 22.676 120.173 0 168.52-26.62 56.776-84.586 102.333-146.44 115.095l-19.346 4v-27.272c0-26.323-.614-27.253-17.859-27.253-17.188 0-17.858.986-17.858 26.788 0 29.56-1.432 30.248-38.693 18.454zm-43.549-121.14l-1.879 16.37h203.977l-1.879-16.37-1.879-16.37H199.438l-1.88 16.37zm2.865-59.025c-2.176-2.177-3.962-10.213-3.962-17.859v-13.896h202.395V315.5h-97.235c-53.482 0-99.021-1.786-101.198-3.962zm.149-71.304c-2.27-2.27-4.111-10.362-4.111-18.007V208.33h203.195l-1.879 16.37-1.879 16.37-95.598 1.637c-52.59.893-97.459-.223-99.71-2.474z"/><glyph glyph-name="BLZ" unicode="" horiz-adv-x="595.281" d="M452.348 91.24c20.864-20.134 54.614-20.134 75.477 0 20.864 20.135 20.864 52.71 0 72.843-20.863 20.134-54.613 20.134-75.477 0-20.677-20.135-20.77-52.797 0-72.842zM156.105 385.67l56.282 54.317 51.556-49.752a100.64 100.64 0 0 1-33.936-21.655 97.938 97.938 0 0 1-22.44-32.754zm252.94-132.806L460.6 203.11l-56.285-54.318-51.556 49.755a100.64 100.64 0 0 1 33.94 21.656c10.014 9.663 17.43 20.758 22.345 32.661zM87.63 425.26c20.86-20.135 54.613-20.135 75.477 0 20.861 20.134 20.861 52.707 0 72.842-20.864 20.132-54.522 20.224-75.386.089-20.863-20.135-20.955-52.797-.091-72.931zm362.922 70.277c-20.864-20.135-20.864-52.707 0-72.842 20.863-20.132 54.613-20.132 75.477 0 20.864 20.135 20.864 52.71 0 72.842-20.77 20.046-54.708 20.046-75.477 0zM93.068 159.373c-20.863-20.135-20.863-52.708 0-72.842 20.861-20.135 54.614-20.135 75.475 0 20.864 20.134 20.864 52.707 0 72.842-20.86 20.134-54.614 20.134-75.477 0zm306.987 278.486l56.284-54.314-51.556-49.755c-4.914 11.903-12.333 22.998-22.44 32.754a102.071 102.071 0 0 1-33.936 21.653zM268.212 195.706l-51.556-49.755-56.284 54.318 51.556 49.754c4.914-11.903 12.333-22.998 22.44-32.753a100.954 100.954 0 0 1 33.844-21.564zm94.22-145.304c0 28.477-23.864 51.51-53.371 51.51-29.502 0-53.37-23.033-53.37-51.507 0-28.474 23.866-51.506 53.37-51.506s53.37 23.032 53.37 51.503zm0 491.951c0 28.474-23.864 51.507-53.371 51.507-29.502 0-53.37-23.033-53.37-51.504 0-28.476 23.866-51.509 53.37-51.509s53.37 23.033 53.37 51.506zM328.48 128.87h-33.57v63.782c5.508-.884 11.015-1.39 16.784-1.39s11.276.506 16.783 1.39zm0 274.06c-5.507.89-11.014 1.395-16.784 1.395s-11.278-.506-16.785-1.392v63.781h33.566zm216.661-69.092c-29.504 0-53.37-23.032-53.37-51.503 0-28.477 23.866-51.51 53.37-51.51s53.37 23.033 53.37 51.507c0 28.474-23.863 51.506-53.37 51.506zM55.185 342.57c-29.504 0-53.37-23.033-53.37-51.504 0-28.476 23.863-51.509 53.37-51.509 29.502 0 53.371 23.033 53.371 51.507 0 28.473-23.866 51.506-53.37 51.506zm354.23-35.295h66.091v-32.397h-66.092c.918 5.313 1.443 10.629 1.443 16.199 0 5.567-.525 10.883-1.443 16.198zm-205.302-.002a94.28 94.28 0 0 1-1.442-16.199c0-5.567.524-10.883 1.442-16.198h-66.09v32.397zm179.007-12.444c0 40.243-33.832 73.02-75.664 73.02-41.83 0-75.664-32.648-75.664-73.02 0-40.369 33.834-73.02 75.664-73.02 41.832 0 75.664 32.78 75.664 73.02z"/><glyph glyph-name="BNB" unicode="" horiz-adv-x="595.281" d="M224.623 465.718c-38.42-38.52-69.85-72.797-69.85-76.178 0-7.584 43.05-50.23 50.712-50.23 3.06 0 25.044 19.353 48.855 43.01l43.3 43.008 43.301-43.009c23.811-23.656 46.04-43.009 49.39-43.009 7.579 0 50.177 43.093 50.177 50.76 0 5.78-137.2 145.683-142.868 145.683-1.738 0-34.597-31.514-73.017-70.035M83.256 324.345l-26.377-26.877 28.115-28.11 28.11-28.114 28.109 28.115 28.115 28.109-26.377 26.877c-14.507 14.775-27.937 26.87-29.848 26.87-1.91 0-15.34-12.095-29.847-26.87m184.537 0l-26.377-26.877 28.115-28.11 28.11-28.114 28.109 28.115 28.115 28.109-26.377 26.877c-14.507 14.775-27.937 26.87-29.848 26.87-1.91 0-15.34-12.095-29.847-26.87m184.537 0l-26.377-26.877 28.115-28.11 28.11-28.114 28.109 28.115 28.115 28.109-26.377 26.877c-14.507 14.775-27.937 26.87-29.847 26.87-1.911 0-15.34-12.095-29.848-26.87m-275.514-90.947c-12.126-12.418-22.043-25.18-22.043-28.371 0-3.185 32.145-37.854 71.434-77.042l71.433-71.249 71.434 71.25c39.289 39.187 71.434 74.094 71.434 77.57 0 7.721-42.944 50.415-50.712 50.415-3.06 0-25.044-19.353-48.855-43.01l-43.3-43.008-43.301 43.009c-23.811 23.656-46.04 43.009-49.39 43.009-3.352 0-16.008-10.156-28.134-22.573"/><glyph glyph-name="BNT" unicode="" horiz-adv-x="595.281" d="M238.112 505.644c-27.829-16.21-51.289-31.532-52.134-34.056-1.28-3.822 91.512-61.201 102.186-63.184 4.804-.892 110.454 58.243 110.531 61.868.072 3.042-5.38 6.346-71.796 43.485L288.71 535.11l-50.599-29.466M148.82 364.752v-64.98l51.778-29.342c28.478-16.138 53.926-30.234 56.551-31.323 2.626-1.096 4.75 27.031 4.727 62.504l-.048 64.487-22.275 12.292c-12.25 6.763-37.675 21.08-56.504 31.818L148.82 429.74v-64.987m212.813 32.318l-52.087-30.442v-129.54l40.182 22.251c77.583 42.968 72.922 36.116 72.922 107.163 0 34.157-2.013 61.855-4.465 61.558-2.453-.304-27.9-14.245-56.552-30.99m22.323-164.132l-71.433-40.842-1.68-66.01-1.684-66.017 74.607 42.658 74.6 42.652v64.224c0 35.324-.666 64.213-1.488 64.201-.821-.011-33.633-18.4-72.922-40.866m-233.85-46.509l1.69-63.594 26.788-15.53a706052.05 706052.05 0 0 1 55.064-31.902l28.276-16.376v130.569l-52.796 30.21c-29.032 16.615-54.575 30.211-56.754 30.211-2.173 0-3.197-28.615-2.268-63.588"/><glyph glyph-name="BRD" unicode="" horiz-adv-x="595.281" d="M241.796 529.521c12.705 3.2 43.864 4.818 69.238 3.609 87.823-4.186 159.294-51.938 199.512-133.324 21.003-42.507 22.23-48.125 22.23-102.147s-1.227-59.64-22.23-102.146c-26.769-54.19-61.24-87.935-116.582-114.146-35.958-17.04-45.167-18.844-96.324-18.844s-60.346 1.805-96.323 18.844c-55.343 26.211-89.813 59.956-116.582 114.146-20.984 42.45-22.23 48.18-22.23 101.848 0 51.492 1.785 60.626 18.844 96.622 10.361 21.858 29.783 51.622 43.14 66.132 26.024 28.239 79.637 59.956 117.307 69.425zm-60.552-114.48c-1.6-4.185-2.195-59.77-1.302-123.52l1.619-115.913 86.315-1.805c114.034-2.38 134.2.856 158.885 25.542 31.996 31.996 26.08 70.764-13.915 91.282l-21.337 10.939 18.77 7.775c22.937 9.506 30.229 22.1 30.229 52.33 0 25.54-14.361 43.548-43.549 54.598-25.187 9.543-211.994 8.445-215.715-1.265zm68.774-117.4v-71.434h55.826c59.956 0 73.722 6.083 66.355 29.262-4.074 12.817-20.072 17.244-71.582 19.83-29.15 1.47-29.801 1.916-31.699 21.709-2.437 25.504 4.911 30.173 47.567 30.304 42.804.111 52.57 4 52.57 20.927 0 17.989-9.412 20.835-68.94 20.835h-50.116V297.64z"/><glyph glyph-name="BRK-alt" unicode="" horiz-adv-x="595.281" d="M298.22 338.381h-11.965v-37.342h10.65c8.022 0 20.116 2.893 20.116 18.539.003 15.646-10.252 18.803-18.8 18.803zm-85.3-50.754h-14.692v-34.055h14.538c7.034 0 17.743 3.7 17.743 16.612 0 12.913-6.176 17.443-17.588 17.443zm12.46 35.568c0 11.241-5.194 15.186-14.793 15.186h-12.36v-29.649h12.229c5.916 0 14.924 3.218 14.924 14.463zm72.26 272.086C133.335 595.281 0 461.946 0 297.641S133.335 0 297.64 0s297.641 133.335 297.641 297.64-133.335 297.641-297.64 297.641zm222.764-344.83s-18.381-19.512-39.796-56.601c-21.415-37.093-29.121-62.765-29.121-62.765l26.496-15.297c-30.068-29.614-67.389-51.88-109.064-63.882v31.51s-26.086 6.162-68.916 6.162-68.917-6.163-68.917-6.163v-32.81c-42.764 11.432-81.13 33.608-112.032 63.472l29.464 17.01s-7.706 25.673-29.12 62.765c-21.415 37.09-39.796 56.602-39.796 56.602l-30.423-17.565a257.34 257.34 0 0 0-8.58 66.04 257.488 257.488 0 0 0 8.205 64.652l30.8-17.783S97.985 365.31 119.4 402.4s29.121 62.764 29.121 62.764l-30.496 17.607c31.076 30.368 69.82 52.916 113.061 64.478v-34.418s26.087-6.162 68.917-6.162 68.916 6.162 68.916 6.162v33.116c42.15-12.142 79.854-34.772 110.098-64.893l-27.527-15.892s7.706-25.675 29.12-62.765 39.796-56.601 39.796-56.601l26.67 15.396a257.577 257.577 0 0 0 7.611-62.265 257.414 257.414 0 0 0-7.955-63.673l-26.328 15.197zM297.64 498.217c-110.066 0-199.293-89.226-199.293-199.293 0-110.067 89.227-199.293 199.293-199.293 110.067 0 199.294 89.226 199.294 199.293 0 110.067-89.227 199.293-199.294 199.293zm-44.517-236.03c-3.352-24.258-25.047-31.951-39.247-31.951h-38.853v131.156h39.32c25.712 0 34.441-15.777 34.048-35.896-.494-15.876-12.426-24.457-17.357-25.047 12.622-3.551 25.44-14.005 22.089-38.263zm65.775-31.951l-20.302 47.557c-.562-.014-9.504-.027-12.339-.027v-47.53H262.59v131.156h40.893c18.145 0 36.552-10.255 36.552-40.893 0-19.244-7.11-31.168-18.62-37.378l23.617-52.885h-26.134zm96.082 0l-26.06 54.003-11.528-19.305v-34.698h-23.3v131.156h23.3v-52.893l31.433 52.893h26.158l-31.323-52.46 37.037-78.696H414.98z"/><glyph glyph-name="BRK" unicode="" horiz-adv-x="595.281" d="M588.04 369.74l-30.88-17.829s-21.284 22.594-46.08 65.542c-24.794 42.947-33.72 72.677-33.72 72.677l31.877 18.405c-35.022 34.877-78.68 61.084-127.487 75.142v-38.344s-30.208-7.137-79.801-7.137-79.802 7.137-79.802 7.137v39.85c-50.07-13.385-94.935-39.498-130.925-74.664l35.316-20.389s-8.924-29.73-33.723-72.677-46.079-65.542-46.079-65.542l-35.664 20.591a298.144 298.144 0 0 1-9.499-74.862c0-26.438 3.465-52.066 9.935-76.47l35.228 20.339s21.284-22.594 46.08-65.542c24.795-42.947 33.722-72.677 33.722-72.677l-34.12-19.7c35.785-34.577 80.21-60.257 129.728-73.496V48.09s30.208 7.136 79.802 7.136 79.8-7.136 79.8-7.136V11.604c48.259 13.9 91.472 39.683 126.29 73.974l-30.68 17.714s8.925 29.728 33.723 72.678c24.795 42.948 46.079 65.541 46.079 65.541l30.483-17.598a298.244 298.244 0 0 1 9.21 73.73 298.218 298.218 0 0 1-8.814 72.098zM299.212 66.873c-127.45 0-230.769 103.319-230.769 230.768s103.32 230.769 230.77 230.769S529.98 425.09 529.98 297.64 426.663 66.872 299.213 66.872zm-77.13 232.53c5.71.685 19.525 10.62 20.098 29.003.456 23.294-9.651 41.564-39.423 41.564h-45.53V218.1h44.99c16.443 0 41.564 8.906 45.446 36.998 3.882 28.09-10.964 40.194-25.58 44.305zM184.1 343.326h14.312c11.113 0 17.129-4.567 17.129-17.586s-10.43-16.748-17.281-16.748H184.1v34.334zm16.832-98.203h-16.835v39.433h17.013c13.213 0 20.363-5.246 20.363-20.197.002-14.95-12.397-19.236-20.541-19.236zM348.3 322.62c0 35.475-21.315 47.35-42.326 47.35h-47.35V218.1h27.405v55.039c3.283 0 13.64.016 14.289.029l23.506-55.069h30.26l-27.346 61.237c13.33 7.194 21.562 21.003 21.562 43.284zm-49.938-22.533H286.03v43.239h13.856c9.895 0 21.771-3.654 21.771-21.772s-14.008-21.467-23.294-21.467zm159.884 69.882h-30.29l-36.396-61.247v61.247h-26.982V218.1h26.982v40.179l13.347 22.354 30.176-62.533h29.78l-42.885 91.124z"/><glyph glyph-name="BRX-alt" unicode="" horiz-adv-x="595.281" d="M210.894 287.276h-15.32V251.77h15.158c7.333 0 18.498 3.859 18.498 17.32 0 13.46-6.438 18.185-18.336 18.185zm88.935 52.913h-12.475v-38.932h11.105c8.363 0 20.974 3.016 20.974 19.329-.002 16.315-10.695 19.603-19.604 19.603zm-75.945-15.832c0 11.722-5.415 15.832-15.423 15.832h-12.887v-30.913h12.748c6.168 0 15.562 3.36 15.562 15.081zm74.024 174.07c-110.182 0-199.5-89.318-199.5-199.5s89.318-199.5 199.5-199.5 199.5 89.317 199.5 199.5c0 110.18-89.318 199.5-199.5 199.5zm-45.1-237.68c-3.496-25.29-26.116-33.312-40.919-33.312h-40.51V364.18h40.998c26.809 0 35.909-16.449 35.497-37.425-.515-16.554-12.956-25.5-18.095-26.116 13.158-3.698 26.525-14.596 23.03-39.89zm68.578-33.31l-21.165 49.584c-.586-.013-9.909-.026-12.867-.026v-49.557H262.68v136.741h42.632c18.92 0 38.111-10.693 38.111-42.633 0-20.063-7.412-32.496-19.412-38.971l24.622-55.137h-27.247zm121.012 0h-27.145l-19.328 49.558-17.683-49.557h-26.115l29.816 70.326-28.17 66.418h27.349l17.273-48.323 15.627 48.323h26.525l-27.966-68.37 29.817-68.374zM297.64 595.282C133.335 595.281 0 461.946 0 297.641S133.335 0 297.64 0s297.641 133.335 297.641 297.64-133.335 297.641-297.64 297.641zm223.265-344.88s-18.4-19.53-39.835-56.662c-21.436-37.129-29.153-62.83-29.153-62.83l26.523-15.312c-30.1-29.643-67.46-51.935-109.177-63.95v31.54s-26.116 6.168-68.987 6.168c-42.875 0-68.988-6.168-68.988-6.168V50.342c-42.809 11.443-81.213 33.646-112.15 63.538l29.493 17.03s-7.714 25.7-29.152 62.83c-21.436 37.127-39.835 56.66-39.835 56.66l-30.457-17.583a257.64 257.64 0 0 0-8.588 66.109 257.737 257.737 0 0 0 8.212 64.717l30.833-17.801s18.399 19.53 39.835 56.662c21.436 37.129 29.152 62.83 29.152 62.83l-30.53 17.627c31.113 30.4 69.898 52.975 113.185 64.547v-34.454s26.115-6.169 68.987-6.169c42.874 0 68.988 6.169 68.988 6.169v33.15c42.194-12.153 79.935-34.81 110.21-64.962l-27.556-15.91s7.714-25.702 29.152-62.83c21.436-37.13 39.835-56.663 39.835-56.663l26.696 15.413a257.858 257.858 0 0 0 7.62-62.332 257.693 257.693 0 0 0-7.964-63.738L520.905 250.4z"/><glyph glyph-name="BRX" unicode="" horiz-adv-x="595.281" d="M218.831 299.625c5.948.714 20.337 11.06 20.932 30.207.475 24.263-10.05 43.29-41.06 43.29H151.28V214.947h46.858c17.126 0 43.29 9.276 47.334 38.533 4.042 29.257-11.417 41.864-26.64 46.145zm-39.564 45.748h14.905c11.575 0 17.84-4.756 17.84-18.315s-10.86-17.444-17.997-17.444h-14.748v35.76zM196.8 243.094h-17.533v41.071h17.722c13.76 0 21.207-5.464 21.207-21.037s-12.913-20.034-21.396-20.034zm153.487 80.712c0 36.948-22.2 49.316-44.082 49.316h-49.316V214.947h28.544v57.323c3.42 0 14.205.016 14.882.032l24.483-57.355h31.518l-28.481 63.78c13.877 7.49 22.452 21.872 22.452 45.08zm-52.011-23.467H285.43v45.034h14.431c10.307 0 22.675-3.806 22.675-22.675 0-18.871-14.588-22.36-24.26-22.36zm133.675 72.783l-18.078-55.896-19.98 55.896h-31.635l32.585-76.828-34.488-81.347h30.208l20.456 57.323 22.358-57.323h31.399l-34.491 79.087 32.35 79.088zm154.516-3.381l-30.88-17.83s-21.283 22.594-46.078 65.542c-24.796 42.948-33.723 72.677-33.723 72.677l31.877 18.405c-35.02 34.877-78.677 61.084-127.486 75.142v-38.344s-30.208-7.137-79.802-7.137-79.8 7.137-79.8 7.137v39.85c-50.072-13.385-94.936-39.498-130.926-74.664l35.315-20.389s-8.924-29.73-33.722-72.677-46.079-65.542-46.079-65.542L9.5 372.502A298.144 298.144 0 0 1 0 297.64c0-26.438 3.465-52.066 9.934-76.47l35.23 20.339s21.283-22.594 46.078-65.542 33.722-72.677 33.722-72.677l-34.118-19.7c35.785-34.577 80.21-60.257 129.728-73.496V48.09s30.208 7.136 79.801 7.136 79.802-7.136 79.802-7.136V11.604c48.257 13.9 91.47 39.683 126.29 73.974l-30.68 17.714s8.923 29.728 33.722 72.678c24.795 42.948 46.079 65.541 46.079 65.541l30.483-17.598a298.244 298.244 0 0 1 9.21 73.73 298.218 298.218 0 0 1-8.814 72.098zM297.64 66.872c-127.45 0-230.768 103.319-230.768 230.768S170.191 528.41 297.64 528.41s230.77-103.32 230.77-230.77S425.09 66.872 297.64 66.872z"/><glyph glyph-name="BSD-alt" unicode="" horiz-adv-x="595.281" d="M297.64 595.281C133.335 595.281 0 461.946 0 297.641 0 133.334 133.335 0 297.64 0s297.641 133.335 297.641 297.64c0 164.306-133.335 297.641-297.64 297.641zm57.744-445.148v91.077H111.287v46.457h372.707l-128.61-137.534zm128.61 157.481H111.287l128.348 137.534v-91.077H483.73v-46.457z"/><glyph glyph-name="BSD" unicode="" horiz-adv-x="595.281" d="M205.251 382.943v145.67L0 308.928h595.281v74.016zM0 212.338h390.03V66.668l205.25 219.948H0z"/><glyph glyph-name="BTA" unicode="" horiz-adv-x="595.281" d="M103.397 238.076v357.205H27.56C12.337 595.281 0 582.949 0 567.729v-74.593h74.701V358.092H0V27.323C0 12.114 12.34-.228 27.56-.228h239.966c-95.95 36.634-164.129 129.486-164.129 238.304zM548.638 68.183l-95.853 95.861c16.038 20.396 25.683 46.063 25.683 74.032 0 66.283-53.736 120.016-120.016 120.016h-91.32v135.044h91.32c107.623 0 199.61-66.698 237.06-160.979V567.73c0 15.217-12.337 27.552-27.557 27.552H238.438V238.076c0-66.277 53.726-120.013 120.014-120.013 27.966 0 53.63 9.644 74.031 25.683l95.859-95.861a255.435 255.435 0 0 0-78.93-48.116h118.543c15.22 0 27.557 12.343 27.557 27.552v116.624a255.278 255.278 0 0 0-46.874-75.762z"/><glyph glyph-name="BTC-alt" unicode="" horiz-adv-x="595.281" d="M480.318 299.044c-19.162 14.432-46.459 20.204-46.459 20.204s23.1 13.392 32.539 26.772c9.45 13.385 14.172 34.122 14.962 44.881.785 10.765 2.625 55.902-32.547 81.88-27.205 20.103-58.381 28.083-100.247 30.679v91.091h-56.164v-90.015h-42.779v90.015h-56.158v-90.015H82.975v-58.324h32.476c8.854 0 24.601-.984 31.292-8.473 6.694-7.476 7.875-11.416 7.875-25.974l.003-232.401c0-5.51-1.05-12.33-5.778-16.795-4.72-4.465-9.442-5.507-20.732-5.507H94.522L82.975 89.606h110.49V-.154h56.161v89.76h42.779V-.154h56.164v91.24c14.518.848 28.055 1.948 35.951 2.982 16.012 2.095 52.226 6.295 86.088 29.917 33.852 23.624 41.456 60.631 42.247 97.895.798 37.267-13.393 62.729-32.537 77.164zM249.623 441.022s17.845 1.573 35.43 1.316c17.59-.26 33.066-.788 56.168-7.875 23.092-7.09 36.729-24.412 37.264-44.885.523-20.472-8.41-34.114-24.15-42.776-15.744-8.66-37.515-13.385-57.995-14.164-20.467-.79-46.717 0-46.717 0v108.384zm125.71-268.478c-12.86-7.09-38.582-13.387-63.509-15.22-24.934-1.84-62.2-1.052-62.2-1.052v120.467s35.694 1.832 63.516 0c27.816-1.845 51.173-8.925 61.665-14.182 10.497-5.245 28.875-16.79 28.875-44.352 0-27.551-15.495-38.576-28.347-45.661z"/><glyph glyph-name="BTCD-alt" unicode="" horiz-adv-x="595.281" d="M55.49 510.495s74.196 84.34 223.223 84.34c149.025 0 301.222-141.415 301.222-305.664C579.935 124.927 449.302 0 307.885 0 166.464 0 18.39 102.1 18.39 265.71c0 163.613 143.956 231.47 226.713 229.563 85.587-1.97 170.268-71.339 180.099-149.657 8.589-68.452-30.014-120.707-47.347-136.771-17.335-16.06-65.95-38.05-109.072-26.633-43.126 11.416-63.414 45.241-67.22 63.001-3.806 17.756-6.303 59.015 28.242 78.86 34.54 19.852 58.004-4.883 62.857-17.139 4.86-12.258-2.12-30.442-15.642-33.612-13.526-3.174-25.575 1.703-32.767 7.83 0 0-1.053-29.55 27.798-34.623 28.856-5.074 46.772 11.416 55.174 24.414 8.403 13.002 24.097 55.49-13.316 94.966-37.417 39.474-102.573 36.621-139.514 9.348-36.936-27.266-74.303-77.634-58.66-151.193 15.65-73.564 82.65-142.063 182.322-142.903 99.672-.842 211.28 78.623 220.583 210.115 9.298 131.485-80.754 224.49-145.433 251.548-64.687 27.063-120.473 38.133-190.25 24.535S76.421 524.24 55.49 510.495z"/><glyph glyph-name="BTCD" unicode="" horiz-adv-x="595.281" d="M297.658 595.252C133.282 595.252.03 462.002.03 297.626.031 133.254 133.285 0 297.658 0 462.028 0 595.28 133.254 595.28 297.626c0 164.373-133.254 297.626-297.623 297.626zm12.011-501.05c-96.693 0-197.943 69.813-197.943 181.682 0 111.878 98.428 158.274 155.017 156.97 58.524-1.344 116.423-48.78 123.148-102.332 5.875-46.803-20.522-82.534-32.376-93.52-11.85-10.977-45.092-26.013-74.576-18.209-29.491 7.804-43.364 30.933-45.968 43.078-2.601 12.138-4.31 40.351 19.312 53.922 23.614 13.571 39.658-3.339 42.981-11.717 3.32-8.385-1.449-20.819-10.7-22.987-9.244-2.168-17.487 1.168-22.403 5.357 0 0-.72-20.201 19.01-23.674 19.729-3.468 31.977 7.804 37.723 16.692 5.749 8.89 16.477 37.944-9.109 64.934-25.58 26.992-70.13 25.044-95.393 6.394-25.255-18.648-50.804-53.085-40.11-103.379 10.702-50.305 56.516-97.137 124.665-97.714 68.15-.578 144.467 53.757 150.833 143.667 6.352 89.905-55.219 153.5-99.447 172-44.23 18.504-82.371 26.077-130.085 16.777-47.711-9.298-72.848-29.481-87.162-38.884 0 0 50.738 57.668 152.634 57.668 101.898 0 205.965-96.69 205.965-209 .005-112.3-89.315-197.725-186.016-197.725z"/><glyph glyph-name="BTCP-alt" unicode="" horiz-adv-x="595.281" d="M424.413 251.446c-14.436-2.362-21.522-3.412-35.958-4.2-6.562-.525-13.386-.787-19.948-1.05 19.16-13.123 31.497-31.233 25.197-56.43-11.548-46.983-72.966-40.683-118.11-30.447L260.37 96.851l-.788-2.624-19.947-81.104L290.554.525l21.26 85.04c87.402-16.536 153.02-9.974 180.579 69.292 17.323 49.082 4.724 86.877-21.785 110.5l-1.575-.788c-12.598-4.987-29.921-10.76-44.62-13.123M408.14 471.658l20.998 84.253-51.182 12.86-20.472-81.89c-13.386 3.412-27.297 6.562-40.946 9.711l20.473 82.416-51.182 12.86-20.997-84.252c-11.024 2.625-22.048 4.987-32.809 7.612l-70.604 17.848-13.649-54.856s38.058-8.662 37.271-9.187c20.735-5.25 24.41-18.898 23.885-29.921l-15.223-61.418-13.386-53.544-28.872-115.75c-2.625-6.298-8.924-15.747-23.36-12.073.525-.787-37.27 9.187-37.27 9.187l-25.46-58.794 66.667-16.535c12.336-3.15 24.41-6.3 36.483-9.449l-21.26-85.04 51.182-12.861 20.998 84.253 16.535 61.68 28.084 112.862a1464.95 1464.95 0 0 0 18.636-4.2c20.735-4.724 42.257-6.561 63.517-8.136a480.472 480.472 0 0 1 38.846-1.575c19.423.262 39.108 3.937 57.48 9.974 15.486 5.25 33.597 11.81 45.145 23.885 13.386 14.173 19.948 33.07 22.835 51.969 9.45 62.467-37.795 95.8-102.363 118.11zm1.313-118.374c-14.436-58.006-103.413-28.61-132.548-21.26l25.46 102.363c29.134-7.349 122.31-20.735 107.088-81.103z"/><glyph glyph-name="BTCP" unicode="" horiz-adv-x="595.281" d="M297.64 595.281C133.335 595.281 0 461.946 0 297.641S133.335 0 297.64 0c164.306 0 297.641 133.335 297.641 297.64s-133.335 297.641-297.64 297.641zm153.808-405.515c-21.26-61.156-71.917-66.143-139.372-53.544l-16.273-65.618-39.108 9.712 15.223 62.73.525 2.1 11.812 48.294c34.908-7.874 82.153-12.598 91.339 23.622 4.724 19.423-4.462 33.334-19.423 43.57 5.25.263 10.237.525 15.486.788 11.286.525 16.798 1.312 27.822 3.412 11.286 1.837 24.672 6.3 34.12 9.711.526.263.788.263 1.313.525 20.21-18.11 29.922-47.507 16.536-85.302zm14.173 153.02c-2.1-14.699-7.35-29.135-17.585-40.159-8.924-9.448-22.835-14.435-34.909-18.372-14.173-4.725-29.396-7.612-44.357-7.612-9.974 0-20.21.262-30.184 1.05-16.273 1.312-33.071 2.625-49.082 6.3-5.25 1.311-9.711 2.099-14.436 3.411l-21.785-87.14-12.86-47.507-16.274-65.092-39.37 9.974 16.273 65.88c-9.187 2.362-18.636 4.986-28.085 7.349l-51.444 12.86 19.686 45.408s29.134-7.874 28.871-7.087c11.286-2.887 16.273 4.462 18.11 9.45l22.31 89.239 10.237 41.47 11.811 47.507c.525 8.399-2.362 18.898-18.373 23.097.525.525-28.609 7.087-28.609 7.087l10.499 42.258 54.593-13.911c8.137-2.1 16.536-3.937 25.198-6.037l16.273 65.092 39.633-9.973-15.749-63.78c10.5-2.363 21.26-4.987 31.76-7.35l15.747 63.255 39.633-9.973-16.273-65.093c49.344-17.848 86.09-43.57 78.741-91.602zM304.99 406.04l-19.686-79.003c22.31-5.512 91.077-28.347 102.364 16.536 11.548 46.457-60.368 56.956-82.678 62.467z"/><glyph glyph-name="BTC" unicode="" horiz-adv-x="595.281" d="M356.247 274.395c-6.862 3.439-22.147 8.07-40.34 9.274-18.202 1.202-41.549 0-41.549 0v-78.801s24.378-.52 40.695.682c16.301 1.203 33.13 5.321 41.543 9.962 8.408 4.636 18.54 11.846 18.54 29.87 0 18.03-12.02 25.58-18.89 29.013zm-51.331 45.845c13.397.517 27.646 3.604 37.938 9.271 10.303 5.665 16.138 14.587 15.802 27.983-.351 13.392-9.27 24.721-24.378 29.362-15.111 4.636-25.233 4.98-36.744 5.15-11.502.169-23.178-.86-23.178-.86V320.24c.002 0 17.17-.517 30.56 0zm-7.211 275.041C133.288 595.281 0 461.996 0 297.576 0 133.16 133.288-.129 297.705-.129s297.7 133.288 297.7 297.705c0 164.42-133.283 297.705-297.7 297.705zM418.92 183.747c-22.154-15.453-45.845-18.204-56.318-19.571-5.169-.68-14.023-1.397-23.517-1.953v-59.687H302.34v58.72h-27.982v-58.72h-36.741v58.72h-72.279l7.552 44.132h21.974c7.387 0 10.471.685 13.56 3.601 3.09 2.922 3.778 7.381 3.778 10.993V372.01c0 9.523-.774 12.1-5.153 16.991-4.378 4.9-14.676 5.544-20.475 5.544h-21.238v38.148h72.278v58.889h36.74v-58.889h27.981v58.889h36.744v-59.595c27.392-1.698 47.783-6.916 65.58-20.067 23.01-16.997 21.803-46.525 21.288-53.565-.512-7.04-3.601-20.606-9.788-29.355-6.174-8.76-21.283-17.517-21.283-17.517s17.852-3.774 30.391-13.22c12.524-9.444 21.806-26.094 21.278-50.474-.504-24.381-5.48-48.591-27.625-64.042z"/><glyph glyph-name="BTG" unicode="" horiz-adv-x="595.281" d="M241.796 529.521c12.705 3.2 43.864 4.818 69.238 3.609 87.823-4.186 159.294-51.938 199.512-133.324 21.003-42.507 22.23-48.125 22.23-102.147s-1.227-59.64-22.23-102.146c-26.769-54.19-61.24-87.935-116.582-114.146-35.958-17.04-45.167-18.844-96.324-18.844s-60.346 1.805-96.323 18.844c-55.343 26.211-89.813 59.956-116.582 114.146-20.984 42.45-22.23 48.18-22.23 101.848 0 51.492 1.785 60.626 18.844 96.622 10.361 21.858 29.783 51.622 43.14 66.132 26.024 28.239 79.637 59.956 117.307 69.425zm35.996-15.589c-2.177-2.176-3.963-18.249-3.963-35.717 0-29.894.875-31.754 14.882-31.754 14.213 0 14.882 1.581 14.882 35.717 0 30.675-1.544 35.716-10.92 35.716-6.008 0-12.705-1.785-14.881-3.962zm73.424-34.396c0-31.438.409-32.22 19.346-36.2 51.288-10.809 75.899-35.327 75.899-75.62 0-18.119-12.427-43.939-25.411-52.85-2.902-1.99 4.353-9.282 16.11-16.221 33.689-19.867 42.971-61.686 22.676-102.072-13.691-27.253-43.679-46.618-79.582-51.38l-29.057-3.851V112.49c0-28.202.335-28.723 14.678-23.272 58.02 22.062 106.74 67.415 132.933 123.781 22.714 48.869 22.714 120.414 0 169.283-26.21 56.366-74.912 101.719-132.933 123.781-14.473 5.507-14.678 5.135-14.678-26.546zm-153.825 12.39c-82.967-43.42-132.821-143.799-114.777-231.12 9.896-47.975 29.262-84.994 61.22-117.065 21.375-21.449 72.96-54.45 85.145-54.45 1.748 0 3.18 12.055 3.18 26.788v26.787h-41.67c-44.627 0-46.617 1.786-38.004 33.913 2.66 9.934 8.725 13.505 25.225 14.882l21.71 1.804 1.636 98.184c1.842 109.476.577 113.141-38.488 113.141-18.547 0-19.7 1.228-19.7 20.835v20.835h89.292v29.764c0 16.37-2.01 29.652-4.465 29.503s-16.091-6.343-30.304-13.784zm82.391-131.781v-40.163l32.648 2.716c36.144 2.995 56.644 16.556 56.644 37.466s-20.5 34.451-56.644 37.465l-32.648 2.716v-40.163zm0-124.19V190.49h26.676c33.838 0 72.96 15.459 77.814 30.75 10.548 33.224-12.147 51.64-70.261 57.017l-34.229 3.18v-45.464zm-3.404-100.975c-1.842-4.8-2.493-19.049-1.47-31.662 1.656-20.165 3.907-23.178 18.584-24.871 16.63-1.898 16.687-1.786 14.882 29.764-1.581 27.68-3.497 31.922-15.235 33.577-7.72 1.098-14.845-1.804-16.761-6.808z"/><glyph glyph-name="BTM-alt" unicode="" horiz-adv-x="595.281" d="M0 297.64C0 133.258 133.258 0 297.64 0c164.383 0 297.641 133.258 297.641 297.64 0 164.383-133.258 297.641-297.64 297.641C133.257 595.281 0 462.023 0 297.641zm236.455 77.335l34.786-34.784-96.902-97.524 14.286-54.042 36.65-9.938 45.966-45.966-13.668-13.665-109.322 29.193-29.195 109.33 21.74 21.739 95.66 95.659zM447.03 148.25l-109.325-29.195-117.399 117.4 34.784 34.785 97.524-96.902 54.042 14.286 9.938 36.65 45.966 45.966 13.665-13.668-29.193-109.322zm-40.374 258.405l-36.65 9.938-45.966 45.966 13.668 13.665 109.322-29.193 29.195-109.33-117.4-117.398-34.785 34.783 96.902 97.524-14.286 54.042zm-227.97-36.653l-45.962-45.963-13.668 13.668L148.25 447.03l109.33 29.195 21.739-21.74 95.659-95.66-34.783-34.785-97.524 96.902-54.042-14.286-9.939-36.65z"/><glyph glyph-name="BTM" unicode="" horiz-adv-x="595.281" d="M207.055 412.451l52.178-52.177L113.88 213.992l21.43-81.063 54.973-14.906 68.95-68.95-20.502-20.5L74.746 72.365 30.955 236.353l32.611 32.612L207.053 412.45zM522.916 72.365L358.928 28.573 182.83 204.674l52.177 52.178L381.29 111.499l81.063 21.43 14.906 54.973 68.95 68.95 20.5-20.502-43.792-163.985zM462.352 459.97l-54.973 14.906-68.95 68.95 20.502 20.5 163.985-43.792 43.792-163.988L390.607 180.45l-52.178 52.177 145.353 146.282-21.43 81.063zm-341.95-54.973l-68.946-68.95-20.501 20.502 43.79 163.985 163.989 43.791 32.612-32.611 143.486-143.487-52.177-52.18L216.373 481.4l-81.063-21.43-14.906-54.973z"/><glyph glyph-name="BTS-alt" unicode="" horiz-adv-x="595.281" d="M242.825 222.127l-128.238 128.24V196.234h118.19c1.212 9.138 4.869 17.97 10.048 25.893zm-10.049-51.174H114.587c2.738-41.731 19.496-79.2 44.777-108.75l83.458 84.383c-5.176 6.998-8.833 15.532-10.046 24.367zm186.417 152.001c-29.554 25.893-67.012 42.648-108.747 44.78v-118.19c9.44-1.524 17.97-5.178 25.287-10.053l83.46 83.463zm-63.962-175.153l83.46-83.46c25.287 29.546 41.12 66.4 43.864 107.224H363.757c-1.528-8.531-4.266-16.45-8.526-23.764zm8.526 48.433H481.94c-2.737 41.73-19.498 79.2-44.768 108.745L353.7 221.21c5.184-7.006 8.528-15.84 10.056-24.977zM177.34 44.842C206.88 18.952 244.355 2.197 286.084.066v118.189c-9.447 1.522-17.978 5.179-25.28 10.048l-83.464-83.46zm133.106 73.413V.065c41.732 2.741 79.195 19.496 108.747 45.389l-82.851 82.852c-7.925-4.875-16.456-8.529-25.896-10.051zM114.587 388.439c31.679-31.675 130.978-131.894 147.73-148.35 7.311 4.274 15.236 7.928 23.155 9.453v193.124l-170.58 152.607c-.305 0-.305-201.043-.305-206.834z"/><glyph glyph-name="BTS" unicode="" horiz-adv-x="595.281" d="M297.763 594.774C133.52 594.774.247 461.757.247 297.518.247 133.282 133.52 0 297.765 0c164.239 0 297.519 133.28 297.519 297.518-.003 164.24-133.28 297.256-297.521 297.256zM421.997 240.97H348.88c-.908 5.72-3.01 11.138-6.316 15.653l51.754 51.753c15.338-18.356 25.872-41.521 27.678-67.406zM315.478 347.185c25.877-1.2 49.05-11.733 67.399-27.68l-51.754-51.756c-4.51 3.005-9.927 5.42-15.645 6.32v73.116zm-121.257 141.12l105.915-94.779V273.77c-4.815-.905-9.933-3.016-14.144-5.72-10.232 10.23-71.913 72.219-91.472 92.079-.3 3.612-.3 128.177-.3 128.177zm0-151.948l79.434-79.434c-3.006-4.816-5.415-10.234-6.321-15.954h-73.113v95.388zm0-111.028h73.113c.903-5.42 3.01-10.833 6.32-15.049L221.9 157.926c-15.643 18.051-25.872 41.521-27.678 67.403zM300.43 119.412c-25.872 1.205-49.04 11.731-67.394 27.68l51.757 51.751c4.507-3.008 9.925-5.412 15.637-6.315v-73.116zm15.048 0v73.116a38.713 38.713 0 0 1 15.95 6.315l51.449-51.449c-18.052-15.946-41.52-26.179-67.399-27.982zm79.739 39.718l-52.056 51.752a41.535 41.535 0 0 1 5.418 14.744h73.714c-1.8-25.278-11.73-48.144-27.076-66.496z"/><glyph glyph-name="BURST" unicode="" horiz-adv-x="595.281" d="M297.64 0C133.251 0 0 133.251 0 297.64s133.251 297.641 297.64 297.641 297.641-133.251 297.641-297.64S462.03 0 297.641 0zm-79.877 236.327l9.765 42.6h28.443L232.474 148.82h90.69c56.122 0 90.706 25.057 99.187 72.048l4.243 23.533c5.488 30.433-1.862 51.53-23.662 62.709 22.025 10.77 34.84 29.428 39.92 57.483l1.862 10.342c8.686 48.179-14.83 71.526-72.85 71.526h-85.683l-21.242-117.735-85.164.053-9.488-45.446H74.41l143.35-47.006zM312 287.429h27.718c28.146 0 38.08-11.423 32.909-40.128l-4.558-25.188c-4.057-22.453-15.997-31.977-37.448-31.977h-36.18L312 287.426zm21.265 117.734h29.67c21.949 0 30.637-11.533 26.451-34.749l-2.919-16.127c-4.28-23.775-18.304-34.044-42.264-34.044h-26.287l15.349 84.92z"/><glyph glyph-name="CFI" unicode="" horiz-adv-x="595.281" d="M133.938 405.78c-83.5-39.95-99.644-147.184-31.21-207.272 41.735-36.64 95.453-40.657 140.968-10.53 20.644 13.656 22.68 16.983 16.483 26.907-8.828 14.132-11.286 14.09-35.318-.56-25.4-15.49-66.957-15.608-92.12-.262-53.45 32.586-53.848 122.42-.696 154.833 26.199 15.971 67.088 15.846 93.549-.292 19.882-12.12 20.418-12.138 31.555-.994 11.144 11.138 10.936 11.608-12.137 27.597-31.675 21.948-78.065 26.365-111.074 10.572m232.16-.47c-13.096-6.12-46.373-34.038-73.952-62.046l-50.14-50.92 49.67-50.891c27.317-27.984 60.772-56.26 74.344-62.832 97.805-47.343 204.92 63.296 158.446 163.667-28.972 62.581-99.364 90.595-158.368 63.022m-32.002-68.743l-45.385-44.408 35.717-36.401c19.644-20.026 42.95-40.224 51.79-44.885 20.834-10.983 60.32-10.834 81.869.31 41.973 21.704 57.32 86.964 30.615 130.182-17.484 28.288-39.902 39.616-78.41 39.616-30.306 0-31.562-.732-76.196-44.414"/><glyph glyph-name="CLAM-alt" unicode="" horiz-adv-x="595.281" d="M297.642 595.281c-164.38 0-297.64-133.259-297.64-297.642S133.263 0 297.645 0s297.64 133.259 297.64 297.64-133.261 297.64-297.643 297.64zm178.59-225.886c6.352-8.793 8.436-20.677 9.12-28.153l-2.495-5.887c-4.791-11.298-34.07-63.409-63.538-100.529-25.527-32.158-63.889-70.301-73.081-79.342a65.645 65.645 0 0 1-10.01 7.492c8.642 11.345 42.129 56.164 63.312 96.869 24.129 46.375 48.528 111.456 52.541 126.97 5.308-1.959 16.716-7.13 24.15-17.42zm-81.965 67.367c5.355.11 17.159-.86 30.638-9.657 13.057-8.523 19.782-24.732 22.593-33.437l-1.307-5.129c-3.19-12.545-26.746-77.156-52.09-125.862-21.488-41.293-55.835-86.946-63.316-96.727a65.978 65.978 0 0 1-8.713 3.468c6.96 14.303 34.82 72.703 47.814 117.028 15.3 52.182 24.131 121.859 24.38 150.07v.246zm-59.492 31.271c3.646 1.562 10.856 3.043 23.236-.333 14.182-3.872 25.147-18.335 30.171-26.116l-.045-5.01c-.246-27.865-8.982-96.746-24.13-148.406-13.23-45.123-42.113-105.16-47.964-117.139a72.937 72.937 0 0 1-8.754 1.389c2.436 15.233 13.09 83.033 19.808 144.814 7.126 65.545 7.68 130.566 7.68 148.932v1.87zm-41.622 16.265c16.359 0 29.73-10.054 35.49-15.188v-2.943c0-18.288-.549-83.035-7.639-148.268-6.801-62.54-17.653-131.309-19.868-145.148-.536.006-1.053.042-1.596.042a83.07 83.07 0 0 1-8.825-.47c-2.169 12.826-13.847 83.028-21.068 149.022-7.854 71.803-11.046 132.582-11.474 144.924-.034.99-.055 1.914-.081 2.843 5.62 5.135 18.708 15.186 35.061 15.186zM219.3 463.68c15.372 7.13 27.344 5.171 32.712 3.602.013-.418.018-.793.034-1.224.428-12.39 3.633-73.388 11.505-145.378 7.206-65.865 18.84-135.91 21.095-149.221a71.36 71.36 0 0 1-9.07-2.302c-5.701 12.287-31.1 68.102-48.178 124.024-19.042 62.356-29.951 120.25-32.253 138.52-.27 2.11-.504 3.997-.725 5.698 3.345 7.402 10.734 19.724 24.88 26.281zm-58.6-40.6a43.99 43.99 0 0 0 28.276 8.552l.09-.7c2.32-18.436 13.316-76.805 32.476-139.541 16.98-55.61 42.13-111.11 48.286-124.402a63.637 63.637 0 0 1-6.127-3.011c-7.486 8.801-38.545 46.724-67.146 102.386-31.285 60.881-43.155 102.967-48.226 120.938l-.767 2.722a213.252 213.252 0 0 0-1.88 6.977c1.578 7.62 5.474 19.041 15.018 26.079zm-50.937-55.34c6.993 12.923 24.808 18.827 31.872 20.72l.032-.114.766-2.703c5.119-18.147 17.107-60.65 48.67-122.08 28.173-54.83 58.788-92.716 67.361-102.874a63.078 63.078 0 0 1-6.541-5.221c-8.86 7.638-44.17 38.97-80.227 83.224-30.407 37.32-51.41 70.388-62.427 98.313a290.754 290.754 0 0 0-4.239 11.397c.058 5.851 1.155 12.731 4.733 19.338zm79.725-182.437c-61.789 53.615-95.622 90.9-96.96 114.456-1.024 17.973 7.977 28.119 12.302 31.93 11.537-27.84 32.398-60.398 62.112-96.871 35.891-44.045 71.105-75.455 80.652-83.71a60.516 60.516 0 0 1-6.153-8.085c-14.752 11.048-32.077 25.029-51.953 42.28zm110.304-75.835c-7.208 0-25.158 9.166-53.416 29.885 4.51 7.394 19.756 27.31 53.161 27.31 33.174 0 48.46-20.422 53.082-28.197-25.142-17.9-45.598-28.998-52.827-28.998zm202.99 193.538c-1.275-22.716-39.705-67.784-87.962-113.359a602.208 602.208 0 0 0-57.271-47.63 63.95 63.95 0 0 1-6.98 9.138c9.355 9.2 47.856 47.498 73.546 79.859 29.53 37.206 58.946 89.45 64.228 101.591 5.04-3.328 15.408-12.327 14.44-29.599z"/><glyph glyph-name="CLAM" unicode="" horiz-adv-x="595.281" d="M351.54 543.136c0-26.635-.806-120.932-11.13-215.984-9.74-89.598-25.197-187.919-28.73-210.008a104.455 104.455 0 0 0 12.694-2.013c8.49 17.364 50.376 104.44 69.56 169.877 21.97 74.908 34.64 174.804 34.998 215.21.029 2.646.05 5.048.063 7.271-7.287 11.274-23.184 32.258-43.756 37.87-17.952 4.893-28.41 2.746-33.699.48v-2.703zm86.277-42.994c-.362-40.913-13.169-141.96-35.358-217.636-18.842-64.275-59.24-148.966-69.336-169.711a96.444 96.444 0 0 0 12.632-5.035c10.857 14.185 60.665 80.397 91.826 140.278 36.75 70.632 70.914 164.33 75.541 182.519l1.896 7.442c-4.082 12.623-13.837 36.127-32.768 48.483-19.543 12.762-36.665 14.17-44.43 14.009l-.003-.35zm7.647-256.207c-30.725-59.04-79.282-124.032-91.819-140.488a94.341 94.341 0 0 0 14.514-10.862c13.337 13.104 68.963 68.428 105.985 115.065 42.735 53.828 85.201 129.403 92.147 145.783l3.617 8.539c-.99 10.838-4.016 28.074-13.224 40.826-10.781 14.923-27.321 22.417-35.028 25.26-5.822-22.496-41.196-116.869-76.192-184.123zm-296.41 249.217c3.336-26.489 19.159-110.45 46.773-200.878 24.767-81.096 61.595-162.04 69.869-179.86a102.723 102.723 0 0 0 13.148 3.336c-3.26 19.31-20.136 120.885-30.588 216.402-11.419 104.4-16.065 192.859-16.684 210.832-.019.62-.03 1.165-.05 1.77-7.783 2.283-25.147 5.113-47.441-5.225-20.514-9.512-31.23-27.378-36.078-38.114.318-2.46.662-5.2 1.05-8.263zm91.398 50.136c.617-17.902 5.25-106.04 16.64-210.172 10.465-95.704 27.404-197.518 30.549-216.108a122.953 122.953 0 0 0 12.799.672c.788 0 1.538-.042 2.318-.053 3.215 20.063 18.952 119.793 28.809 210.488 10.287 94.606 11.09 188.501 11.09 215.024v4.265c-8.363 7.445-27.748 22.024-51.47 22.024-23.72 0-42.7-14.577-50.848-22.018.034-1.347.066-2.683.113-4.122zm59.99-434.491c-48.446 0-70.553-28.883-77.092-39.603 40.973-30.048 67.008-43.34 77.463-43.34 10.481 0 40.146 16.09 76.61 42.046-6.707 11.28-28.873 40.897-76.98 40.897zm273.8 240.648c-7.657-17.605-50.318-93.375-93.142-147.326-37.25-46.936-93.089-102.478-106.654-115.818a93.107 93.107 0 0 0 10.121-13.243 870.831 870.831 0 0 1 83.057 69.063c69.981 66.094 125.717 131.447 127.565 164.401 1.404 25.05-13.631 38.099-20.947 42.923zm-549.73 6.374c15.975-40.488 46.433-88.456 90.532-142.57 52.292-64.185 103.5-109.623 116.349-120.7a92.753 92.753 0 0 0 9.484 7.583c-12.43 14.726-56.828 69.672-97.685 149.19-45.77 89.083-63.16 150.717-70.586 177.035l-1.11 3.922-.047.165c-10.243-2.74-36.08-11.308-46.223-30.048-5.187-9.581-6.778-19.556-6.867-28.043a423.59 423.59 0 0 1 6.153-16.534zm200.6-269.586c-13.845 11.97-64.913 57.518-116.96 121.399-43.092 52.885-73.345 100.105-90.08 140.483-6.275-5.523-19.324-20.239-17.838-46.307 1.942-34.162 51.008-88.228 140.614-165.985 28.824-25.013 53.945-45.29 75.339-61.313a87.755 87.755 0 0 0 8.924 11.723zM80.045 432.717l1.113-3.948c7.355-26.06 24.57-87.093 69.936-175.387 41.477-80.728 86.52-135.713 97.373-148.475a93.945 93.945 0 0 0 8.889 4.368c-8.928 19.267-45.402 99.756-70.03 180.405-27.782 90.976-43.726 175.623-47.091 202.359l-.126 1.015c-7.843.426-24.709-.378-41.01-12.4-13.841-10.21-19.49-26.774-21.782-37.818a314.568 314.568 0 0 1 2.728-10.119z"/></font>
</defs>
</svg>
